<?xml version="1.0" encoding="UTF-8" standalone="no"?>
<!-- Created with Inkscape (http://www.inkscape.org/) -->

<svg
   width="81.719963mm"
   height="100.11776mm"
   viewBox="0 0 81.719963 100.11776"
   version="1.1"
   id="svg5"
   inkscape:version="1.1.1 (3bf5ae0d25, 2021-09-20)"
   sodipodi:docname="ancla.svg"
   inkscape:export-filename="/home/searchsam/Documentos/doctex/ritual/penitencial/images/ancla.png"
   inkscape:export-xdpi="96"
   inkscape:export-ydpi="96"
   xmlns:inkscape="http://www.inkscape.org/namespaces/inkscape"
   xmlns:sodipodi="http://sodipodi.sourceforge.net/DTD/sodipodi-0.dtd"
   xmlns="http://www.w3.org/2000/svg"
   xmlns:svg="http://www.w3.org/2000/svg">
  <sodipodi:namedview
     id="namedview7"
     pagecolor="#ffffff"
     bordercolor="#666666"
     borderopacity="1.0"
     inkscape:pageshadow="2"
     inkscape:pageopacity="0.0"
     inkscape:pagecheckerboard="0"
     inkscape:document-units="mm"
     showgrid="false"
     inkscape:zoom="0.7071068"
     inkscape:cx="-51.618794"
     inkscape:cy="161.22034"
     inkscape:window-width="1366"
     inkscape:window-height="707"
     inkscape:window-x="0"
     inkscape:window-y="0"
     inkscape:window-maximized="1"
     inkscape:current-layer="layer1"
     fit-margin-top="0"
     fit-margin-left="0"
     fit-margin-right="0"
     fit-margin-bottom="0" />
  <defs
     id="defs2" />
  <g
     inkscape:label="Capa 1"
     inkscape:groupmode="layer"
     id="layer1"
     transform="translate(24.4285,1.4509911)">
    <g
       id="g39569"
       transform="matrix(1.5969855,0.11393575,-0.06459983,1.5998001,-118.23214,-299.5189)"
       style="fill:#ffdb57;fill-opacity:1"
       inkscape:export-filename="/home/searchsam/Documentos/doctex/ritual/penitencial/ancla.png"
       inkscape:export-xdpi="96"
       inkscape:export-ydpi="96">
      <path
         id="path75"
         style="fill:#ffdb57;fill-opacity:1;stroke:none;stroke-width:0.0999999;stroke-linecap:butt;stroke-linejoin:miter;stroke-miterlimit:4;stroke-dasharray:none;stroke-opacity:1"
         d="m 351.48047,679.19727 c -4.04945,0.0219 -8.20797,1.26666 -11.25977,3.63281 -5.76536,4.47005 -8.91956,12.64872 -9.01367,19.94336 -0.0489,3.79415 4.41797,10.49218 4.41797,10.49218 0,0 0.24659,0.53489 0.13086,0.75977 -0.0605,0.11754 -0.0858,0.26109 -0.76367,0.24219 -2.43998,-0.0628 -8.4106,-0.15442 -11.7168,0.31836 -2.68602,0.38407 -5.17349,1.73627 -7.86133,2.10742 v -0.002 c -10.14403,1.40065 -30.71875,0.38671 -30.71875,0.38671 0,0 -1.33814,-0.0603 -1.76367,0.36329 -0.68829,0.68507 -0.60156,2.85156 -0.60156,2.85156 l 0.57812,16.86914 c 0,0 -0.11925,4.33055 1.27149,5.68555 1.90127,1.85242 4.88117,1.6818 7.81445,1.53515 8.12625,-0.40618 21.2063,-1.09457 31.77148,-2.10937 4.93742,-0.47426 14.76368,-1.85742 14.76368,-1.85742 0,0 1.31633,-0.24377 1.75976,0.14257 0.371,0.32327 0.28397,0.39165 0.31836,1.44141 0.0745,2.26957 0.21749,6.22784 0.36524,8.57617 0.82391,13.09467 2.70708,26.11584 3.34765,39.22071 1.04508,21.37972 0.10022,42.81527 0.80274,64.20898 0.23288,7.09198 1.13086,21.25781 1.13086,21.25781 0,0 0.26105,1.59634 -0.28516,1.97656 -0.38038,0.26472 -0.67017,-0.0654 -1.35937,-0.29101 -0.85335,-0.27923 -1.9751,-0.61229 -2.72266,-0.69922 -18.75788,-2.18049 -37.86425,4.97268 -56.59375,2.56055 -6.1307,-0.78958 -11.91942,-3.33832 -17.70899,-5.50391 -2.75894,-1.032 -5.40258,-4.76933 -8.08789,-3.55859 -2.01916,0.91037 -2.30922,3.35583 -2.02148,6.32812 0.38748,4.00282 2.99,8.61727 5.15039,11.16406 10.22064,12.0488 26.25393,18.68362 44.01562,17.58789 21.29206,-1.31349 27.24742,-6.53661 31.51172,-5.8789 3.11583,0.4806 12.67044,16.83966 18.61914,16.35547 9.51805,-0.77469 12.46474,-14.29965 17.9336,-18.81055 2.09854,-1.73091 12.45025,1.58493 21.50781,-0.13086 10.929,-2.07027 22.7994,-2.12762 32.49805,-7.57422 8.33654,-4.68166 16.39786,-11.64936 20.09961,-20.46484 1.88746,-4.49526 1.75565,-9.97835 0.27343,-14.62305 -0.38657,-1.21134 -0.99924,-3.15831 -2.26757,-3.06836 -0.79741,0.0565 -0.69595,0.9638 -2.46485,2.64649 -5.54974,5.2792 -15.88746,15.43836 -23.71094,18.24609 -11.10829,3.98661 -23.68107,-0.97072 -35.40429,0.39063 -3.64505,0.42326 -7.60384,1.60628 -10.74219,2.40429 -1.38114,0.3515 -1.63473,0.32336 -1.90039,0.12305 -0.27131,-0.20459 -0.39246,-0.40322 -0.42383,-1.88086 -0.12067,-5.69881 -0.44159,-20.38014 -0.70703,-28.56055 -0.52135,-16.06775 -1.66035,-32.11584 -1.94922,-48.18945 -0.22013,-12.24805 0.25552,-24.50029 0.16602,-36.75 -0.0426,-5.8238 -0.33399,-17.46875 -0.33399,-17.46875 0,0 -0.0883,-1.27259 0.28516,-1.7168 0.45289,-0.53884 1.99219,-0.69922 1.99219,-0.69922 l 46.41992,-6.80468 c 0,0 7.73492,-1.2929 9.82617,-4.17188 0.80096,-1.1026 0.62684,-3.37948 0.35547,-4.07226 -0.59773,-1.52644 -1.10137,-3.10098 -1.41016,-4.71094 -0.62094,-3.23815 -0.38742,-6.59201 -0.87109,-9.85352 -0.28244,-1.90458 -0.66026,-4.30509 -2.26758,-5.42968 -1.93243,-1.35194 -3.67347,-0.83528 -7.06836,-0.32618 -6.82095,1.02286 -18.22694,2.65024 -25.11328,3.18164 -6.86468,0.52959 -13.76725,0.31449 -20.65039,0.47852 -1.02387,0.0246 -2.72765,0.44392 -3.07227,0.0762 -0.29399,-0.31366 -0.18546,-0.45092 0.13868,-1.74609 0.88966,-3.55465 2.3613,-10.72133 0.91211,-14.53906 -1.95218,-5.14285 -6.73368,-9.74155 -12.00196,-11.32422 -1.68106,-0.50502 -3.49918,-0.74826 -5.33984,-0.73828 z m 0.92383,4.89648 c 4.65264,0.14287 9.84274,3.4757 11.58789,7.79102 2.61399,6.46374 -2.96039,19.35538 -4.64844,22.99023 -0.2894,0.62321 -0.26382,0.72159 -0.16797,0.80273 0.0696,0.059 0.0812,0.1207 0.76563,0.0273 4.65519,-0.62408 23.45755,-3.11874 33.54492,-4.04688 7.26996,-0.6689 20.80568,-1.37341 24.55078,-1.5625 0.62956,-0.0302 0.69596,-0.0563 0.94727,0.14063 0.13833,0.10885 0.19921,0.48828 0.19921,0.48828 l 2.80079,11.51953 c 0,0 0.42091,1.69828 -0.0352,2.32617 -0.66913,0.923 -3.23438,1.10938 -3.23438,1.10938 l -52.01757,7.26953 c 0,0 -0.6698,0.0394 -0.86524,0.26953 -0.11168,0.13153 -0.15919,0.13861 -0.17578,0.625 -0.13145,3.85024 -0.712,21.54169 -0.63672,30.91602 0.12828,15.97319 1.61728,31.91574 1.77344,47.88867 0.12106,12.38086 -1.2019,24.7696 -0.64844,37.13867 0.17125,3.82711 1.00361,7.60331 1.22656,11.42773 0.26918,4.61764 -0.17815,9.25986 0.13086,13.875 0.16249,2.42691 0.9043,7.24219 0.9043,7.24219 0,0 0.36186,1.71631 1.06055,1.85547 1.49638,0.2982 2.38867,-1.49219 2.38867,-1.49219 0,0 1.567,-2.61665 2.86914,-3.23437 4.45588,-2.11378 9.86309,-0.26059 14.7832,-0.59961 12.2346,-0.84333 25.10796,0.66844 36.61719,-3.56641 6.35512,-2.33839 16.67383,-11.60547 16.67383,-11.60547 0,0 1.92791,-1.75055 2.71484,-1.16015 2.04121,1.53135 -0.45898,5.10937 -0.45898,5.10937 0,0 -9.38103,13.39882 -16.47071,16.69336 -27.3349,12.70235 -42.8574,0.26235 -56.88867,8.58789 -3.67751,2.18207 -6.89832,9.08055 -9.22851,13.25977 -1.41927,2.54543 -2.39783,2.45337 -3.95899,2.50976 -1.62831,0.059 -4.30664,-2.3125 -4.30664,-2.3125 0,0 -9.04134,-10.81279 -11.49414,-12.03906 -5.76551,-2.88249 -29.08989,3.60478 -34.91211,2.9668 -10.99405,-1.20469 -24.00999,-0.45671 -34.17969,-5.96485 -3.07146,-1.66356 -7.15039,-7.66211 -7.15039,-7.66211 0,0 9.64857,4.08579 14.78321,4.62891 14.97087,1.58355 29.9743,-2.83964 44.96875,-4.18164 8.55196,-0.76539 15.17385,-0.36484 19.11132,0.0781 2.63819,0.29708 3.04315,0.43428 3.58204,0.10743 0.47178,-0.28611 0.61752,-0.93069 0.73437,-2.59961 0.0922,-1.31698 0.17846,-2.7785 0.18945,-3.79492 0.10481,-9.66683 -0.97059,-19.31359 -1.18945,-28.97852 -0.54798,-24.19941 2.48474,-24.27156 -0.31055,-72.61523 -0.78661,-13.6043 -2.27539,-40.81836 -2.27539,-40.81836 0,0 0.0232,-1.42678 -0.45507,-1.83985 -0.5896,-0.50925 -2.32618,-0.22461 -2.32618,-0.22461 0,0 -7.91201,0.43262 -11.84179,0.91602 -6.54268,0.80477 -12.94981,2.55774 -19.5,3.29883 -7.31516,0.82764 -21.19702,1.31798 -24.28907,1.41992 -0.40119,0.0151 -0.39289,0.0191 -0.51562,-0.10938 -0.15247,-0.15722 -0.11719,-0.64648 -0.11719,-0.64648 l -0.25,-14.69727 c 0,0 -0.0394,-0.45664 0.0996,-0.60937 0.17473,-0.18898 0.1993,-0.17188 0.75,-0.1836 3.02101,-0.0646 13.24463,-0.29602 18.77539,-0.60156 6.3727,-0.35225 12.71485,-1.16213 19.08789,-1.50781 6.1107,-0.33146 17.61848,-0.55799 20.28125,-0.60742 0.36133,-0.008 0.4436,-0.0262 0.50196,-0.0957 0.0567,-0.0669 0.0488,-0.49218 0.0488,-0.49218 l -0.0351,-2.31641 c 0,0 -0.0135,-0.15822 -0.0469,-0.22851 -0.034,-0.0722 -0.0271,-0.082 -0.15234,-0.18555 -1.23162,-1.01805 -7.96465,-6.72842 -9.31055,-10.93945 -1.35372,-4.23549 -1.18716,-9.52952 1.19336,-13.28516 2.98906,-4.71572 8.86666,-8.64605 14.44727,-8.47461 z"
         transform="scale(0.26458333)" />
      <path
         id="path77"
         style="fill:#ffdb57;fill-opacity:1;stroke:none;stroke-width:0.0999999;stroke-linecap:butt;stroke-linejoin:miter;stroke-miterlimit:4;stroke-dasharray:none;stroke-opacity:1"
         d="m 351.01172,687.41992 c -0.0597,5e-4 -0.12016,0.003 -0.17969,0.006 -4.98332,0.21608 -10.06181,6.07451 -10.07617,11.0625 -0.0139,4.8178 4.87196,11.15748 9.67187,10.74219 5.50636,-0.47641 9.54279,-8.56646 8.8125,-14.04492 -0.49603,-3.72115 -4.47022,-7.79674 -8.22851,-7.76563 z m -0.79492,3.33789 c 2.61904,-0.035 5.31419,2.90297 5.73828,5.49024 0.56116,3.42349 -1.61257,8.55262 -5.03711,9.10742 -3.18325,0.51568 -6.83809,-3.34186 -7.11524,-6.55469 -0.28996,-3.36151 2.79921,-7.73501 6.16016,-8.03125 0.0842,-0.007 0.16942,-0.0106 0.25391,-0.0117 z"
         transform="scale(0.26458333)" />
      <path
         style="fill:#ffdb57;fill-opacity:1;stroke:none;stroke-width:0.0264583;stroke-linecap:butt;stroke-linejoin:miter;stroke-miterlimit:4;stroke-dasharray:none;stroke-opacity:1"
         d="m 93.580643,195.04304 c 0,0 0.0092,-0.742 0.277119,-0.75553 0.458098,-0.0231 0.601625,1.23755 0.601625,1.23755 0,0 0.49942,5.17563 0.642035,7.77081 0.196825,3.58164 0.299722,7.17007 0.294419,10.75712 -0.0047,3.16347 -0.25437,6.32275 -0.287702,9.48605 -0.03034,2.87929 0.08499,5.74747 0.07988,8.63798 -0.0024,1.3291 0.32316,3.81094 0.347354,5.28648 0.01031,0.62871 0.0918,1.17411 -0.328256,1.22696 -0.420552,0.0529 -0.599834,-0.67774 -0.622724,-1.10869 -0.03682,-0.69318 -0.03329,-1.38881 -0.09322,-2.08038 -0.08174,-0.94322 -0.301821,-1.8722 -0.362894,-2.81698 -0.182863,-2.82882 -0.02072,-5.66948 -0.0084,-8.50418 0.02066,-4.75569 0.223269,-9.51156 0.138059,-14.26653 -0.08891,-4.96123 -0.677282,-14.87066 -0.677282,-14.87066 z"
         id="path81"
         sodipodi:nodetypes="cacaaassasaaaacc" />
      <path
         id="path83"
         style="fill:#ffdb57;fill-opacity:1;stroke:none;stroke-width:0.0999999;stroke-linecap:butt;stroke-linejoin:miter;stroke-miterlimit:4;stroke-dasharray:none;stroke-opacity:1"
         d="m 323.82812,745.55469 c -3.91462,-0.014 -5.50461,8.30023 -6.00195,11.8164 -0.13334,0.94266 -0.11219,1.14629 -0.35351,1.41993 -0.23824,0.27004 -0.58729,0.26826 -1.38282,0.74414 -2.29118,1.3706 -6.70319,4.50474 -8.32617,7.1582 -5.17168,8.45526 -5.66186,19.26266 -5.74414,29.17383 -0.12464,15.0164 -0.91398,29.97359 7.96875,44.33984 4.07961,6.59804 -3.38412,17.42943 -3.90625,26.26563 -0.10639,1.80015 -0.9831,4.01367 0.16016,5.4082 1.50192,1.83194 4.6333,2.20437 6.92383,1.59961 1.61165,-0.42554 3.55438,-2.67798 4.51171,-3.90039 0.36983,-0.4721 0.48709,-0.43492 0.78125,-0.41602 0.18082,0.0106 0.44532,0.31055 0.44532,0.31055 0,0 2.65197,4.30741 4.71093,4.0625 1.80679,-0.21487 2.79504,-3.1567 3.49219,-4.87695 0.27174,-0.67053 0.40132,-1.25688 0.92969,-1.28711 0.44724,-0.0254 0.58714,0.39841 0.90625,0.99414 0.83811,1.56461 2.09019,4.69824 3.68164,4.28711 3.57281,-0.92308 2.46131,-7.53955 2.60742,-11.45118 0.18283,-4.8946 -1.99023,-9.63511 -2.18359,-14.52929 -0.26584,-6.72843 1.38805,-13.41874 1.41601,-20.15235 0.0182,-4.37083 -1.07965,-8.72533 -0.81054,-13.08789 0.17884,-2.89931 1.31487,-5.67402 1.60351,-8.56445 1.54287,-15.45014 -0.37456,-31.08317 0.65235,-46.57617 0.10237,-1.54458 0.83233,-3.09149 0.54882,-4.61328 -0.50843,-2.72909 -1.16436,-6.85678 -3.89453,-7.35938 -1.89173,-0.34824 -4.19226,2.61273 -5.27734,4.20508 -0.39067,0.57313 -0.30161,0.68623 -0.5918,0.64844 -0.23505,-0.0294 -0.0972,-0.28484 -0.25781,-1.10938 -0.34203,-1.75555 -1.1169,-4.50598 -2.60938,-4.50976 z m 6.79688,5.54883 c 0.0689,-0.003 0.13969,10e-4 0.21289,0.01 1.6959,0.20221 1.21135,4.94405 1.40234,7.4707 1.37757,18.22398 -1.23149,36.53123 -1.90039,54.79493 -0.38551,10.52628 -1.34257,21.04361 -1.21679,31.57617 0.0843,7.05789 4.34562,20.26242 1.32031,21.13281 -2.01399,0.5794 -0.64459,-3.35077 -5.77148,-2.49414 -1.43939,0.24038 -0.24976,3.6274 -1.64454,4.05664 -1.89546,0.5833 -2.96604,-3.31018 -4.94922,-3.30273 -2.84682,0.0113 -3.76166,5.92149 -7.06835,4.79296 -3.18888,-1.08831 3.45047,-7.23178 4.8125,-24.07812 0.34658,-4.28689 -5.63373,-20.0208 -7.36524,-30.25391 -0.83901,-4.95847 -1.44329,-9.9867 -1.45312,-15.01562 -0.0181,-9.26317 -1.42232,-19.31239 2.56836,-27.67188 2.19339,-4.59462 8.44598,-6.22015 10.9375,-10.66015 1.65911,-2.95665 -0.19633,-9.66075 2.26562,-9.91602 1.52262,-0.15798 1.31254,4.89526 1.16211,7.58594 -0.0522,0.93377 0.29583,1.58943 0.9375,1.74023 0.7946,0.18671 1.59134,-0.62822 1.99805,-1.41406 1.48651,-2.87227 1.6156,-8.27248 3.75195,-8.35351 z"
         transform="scale(0.26458333)" />
      <path
         id="path87"
         style="fill:#ffdb57;fill-opacity:1;stroke:none;stroke-width:0.0999999;stroke-linecap:butt;stroke-linejoin:miter;stroke-miterlimit:4;stroke-dasharray:none;stroke-opacity:1"
         d="m 318.04492,769.2832 c -1.65347,0.064 -2.5436,2.59009 -3.37109,4.1211 -1.49058,2.7578 -3.37397,6.05582 -2.5,9.0664 0.56986,1.96305 2.52569,4.4491 4.54297,4.11914 3.78313,-0.61859 5.60836,-6.20372 5.61328,-10.03711 0.004,-2.7688 -1.28227,-6.96307 -4.03516,-7.25976 -0.0851,-0.009 -0.16868,-0.0129 -0.25,-0.01 z m 0.14258,4.28907 c 0.0382,-4.3e-4 0.0763,1.8e-4 0.11523,0.002 1.44527,0.0654 1.61697,2.64229 1.47461,4.08203 -0.18878,1.90953 -1.06009,4.83189 -2.97656,4.92773 -0.92421,0.0461 -1.57059,-1.30023 -1.66601,-2.2207 -0.25352,-2.44517 0.64496,-6.76432 3.05273,-6.79101 z"
         transform="scale(0.26458333)" />
      <path
         id="path91"
         style="fill:#ffdb57;fill-opacity:1;stroke:none;stroke-width:0.0999999;stroke-linecap:butt;stroke-linejoin:miter;stroke-miterlimit:4;stroke-dasharray:none;stroke-opacity:1"
         d="m 386.97852,741.87109 c -1.52565,0.0297 -2.56829,1.85937 -3.25,3.22461 -3.295,6.5986 -2.05156,14.60745 -3.01368,21.91992 -0.81445,6.19004 -2.06456,12.34648 -2.33593,18.58399 -0.97476,22.39601 1.01542,44.83894 2.55664,67.20312 0.37307,5.41388 -2.99624,13.34167 1.61718,16.19922 1.97708,1.22461 4.20647,-2.64683 6.52539,-2.4707 1.49938,0.11391 2.42413,2.20168 3.92774,2.2168 1.72252,0.0183 2.83262,-2.3999 4.55469,-2.44336 1.83518,-0.0465 3.33331,3.19697 5.4082,2.57422 8.51913,-2.55685 -2.91184,-17.85938 -2.16992,-26.78711 0.64509,-7.76293 3.97556,-15.06685 5.70508,-22.66211 1.59137,-6.98846 3.02635,-14.01452 4.29687,-21.06836 1.1249,-6.24529 3.31338,-12.47358 2.94336,-18.8086 -0.47879,-8.20161 -1.91092,-17.0082 -6.61719,-23.74218 -1.63226,-2.33556 -4.85746,-3.04728 -6.94531,-4.98633 -2.76317,-2.56622 -3.4883,-8.5246 -7.25781,-8.67578 -1.50486,-0.0603 -1.94437,2.55808 -2.86914,2.54297 -0.94874,-0.0163 -1.68569,-2.84677 -3.07617,-2.82032 z m 6.19531,4.92579 c 1.69503,-0.1237 2.28303,4.41505 3.94531,6.10351 2.01479,2.0465 5.44553,2.56345 7.05859,4.93945 4.69448,6.91491 5.80278,16.04066 5.77735,24.39844 -0.0189,6.72847 -3.39654,13.02636 -4.76953,19.61328 -1.28138,6.14733 -1.69873,12.46932 -3.23243,18.5586 -1.02837,4.08291 -3.32804,7.82767 -3.98632,11.98632 -0.94885,5.99456 -1.16422,12.27718 0.1289,18.20704 0.39923,1.83076 1.77654,3.3291 2.30469,5.12695 0.35414,1.20608 0.33578,2.49362 0.56055,3.73047 0.32768,1.80253 3.04806,4.4997 1.14844,5.375 -3.28188,1.51219 -5.88994,-3.26959 -7.16602,-2.95313 -1.22207,0.30312 -1.44764,2.48826 -2.69727,2.64258 -1.73215,0.21392 -2.7746,-2.60728 -4.51953,-2.64258 -1.16171,-0.0227 -1.7774,2.20376 -3.07812,1.63672 -1.32231,-0.57645 0.55075,-8.74419 0.46484,-13.11914 -0.23546,-11.99013 -3.1226,-14.51737 -2.68164,-35.87695 0.20334,-9.84881 -0.39846,-19.71274 0.0644,-29.55274 0.40475,-8.60254 1.57556,-17.1531 2.36914,-25.72851 0.36624,-3.956 0.0476,-11.55579 1.10352,-11.86719 2.66566,-0.78614 2.02869,8.43809 5.17383,8 2.47302,-0.34431 -0.28576,-8.02546 1.86328,-8.55078 0.0571,-0.014 0.11329,-0.0233 0.16797,-0.0273 z"
         transform="scale(0.26458333)" />
      <path
         id="path95"
         style="fill:#ffdb57;fill-opacity:1;stroke:none;stroke-width:0.0999999;stroke-linecap:butt;stroke-linejoin:miter;stroke-miterlimit:4;stroke-dasharray:none;stroke-opacity:1"
         d="m 396.51953,760.71094 c -3.07119,0.10742 -5.27492,4.8105 -5.42383,7.95898 -0.15938,3.36873 1.79709,8.59566 5.16797,8.69922 3.02476,0.0929 4.89004,-4.48738 5.10547,-7.50586 0.24129,-3.38332 -1.09184,-8.84317 -4.4707,-9.14062 -0.12764,-0.0112 -0.25406,-0.0161 -0.37891,-0.0117 z m 0.38672,3.00586 c 0.0926,-2e-4 0.18827,0.009 0.28516,0.0254 1.59156,0.27477 1.11641,3.12661 1.01171,4.73828 -0.13379,2.05795 -0.003,5.76294 -2.06445,5.83203 -1.89158,0.0635 -2.38513,-3.3272 -2.24805,-5.21484 0.14482,-1.99391 1.13348,-5.37687 3.01563,-5.38086 z"
         transform="scale(0.26458333)" />
    </g>
  </g>
</svg>
