<?xml version="1.0" encoding="UTF-8" standalone="no"?>
<!-- Created with Inkscape (http://www.inkscape.org/) -->

<svg
   xmlns:dc="http://purl.org/dc/elements/1.1/"
   xmlns:cc="http://creativecommons.org/ns#"
   xmlns:rdf="http://www.w3.org/1999/02/22-rdf-syntax-ns#"
   xmlns:svg="http://www.w3.org/2000/svg"
   xmlns="http://www.w3.org/2000/svg"
   xmlns:sodipodi="http://sodipodi.sourceforge.net/DTD/sodipodi-0.dtd"
   xmlns:inkscape="http://www.inkscape.org/namespaces/inkscape"
   width="32.778362mm"
   height="35.919254mm"
   viewBox="0 0 32.778362 35.919254"
   version="1.1"
   id="svg8"
   sodipodi:docname="cruz_cristo.svg"
   inkscape:export-filename="/home/fedora/Dropbox/nfinito/boda_luis_valdivia/cruz_cristo.svg.png"
   inkscape:export-xdpi="90"
   inkscape:export-ydpi="90"
   inkscape:version="0.92.4 (unknown)">
  <defs
     id="defs2" />
  <sodipodi:namedview
     id="base"
     pagecolor="#ffffff"
     bordercolor="#666666"
     borderopacity="1.0"
     inkscape:pageopacity="0.0"
     inkscape:pageshadow="2"
     inkscape:zoom="0.49497475"
     inkscape:cx="-202.71276"
     inkscape:cy="-37.77685"
     inkscape:document-units="mm"
     inkscape:current-layer="layer1"
     showgrid="false"
     fit-margin-top="0"
     fit-margin-left="0"
     fit-margin-right="0"
     fit-margin-bottom="0"
     inkscape:window-width="1366"
     inkscape:window-height="711"
     inkscape:window-x="0"
     inkscape:window-y="0"
     inkscape:window-maximized="1" />
  <metadata
     id="metadata5">
    <rdf:RDF>
      <cc:Work
         rdf:about="">
        <dc:format>image/svg+xml</dc:format>
        <dc:type
           rdf:resource="http://purl.org/dc/dcmitype/StillImage" />
        <dc:title></dc:title>
      </cc:Work>
    </rdf:RDF>
  </metadata>
  <g
     inkscape:label="Capa 1"
     inkscape:groupmode="layer"
     id="layer1"
     transform="translate(-57.064427,-87.988227)">
    <path
       style="opacity:1;vector-effect:none;fill:#fe1d41;fill-opacity:1;stroke:none;stroke-width:0.85684353;stroke-linecap:round;stroke-linejoin:miter;stroke-miterlimit:4;stroke-dasharray:none;stroke-dashoffset:0;stroke-opacity:1"
       d="m 173.62109,120.83398 c 0,0 4.7856,4.31275 5.99414,7.17774 6.01614,14.26236 6.42087,42.00328 6.27735,54.38672 -9.31642,-8.15976 -29.70134,-26.97858 -36.30469,-40.97852 -1.32645,-2.81234 -1.3418,-9.25586 -1.3418,-9.25586 0,0 -4.91432,9.80044 -8.57031,13.79102 -3.2589,3.55714 -11.57812,8.68359 -11.57812,8.68359 0,0 6.40574,-0.68452 9.3457,0.32813 16.05654,5.53063 39.57903,26.82493 46.86523,33.65625 -7.55491,6.53015 -31.91978,26.8607 -48.1875,31.73828 -2.9785,0.89302 -9.35156,-0.0508 -9.35156,-0.0508 0,0 8.61147,5.98548 11.90039,9.98437 3.21238,3.90584 7.32422,13.28516 7.32422,13.28516 0,0 0.27579,-6.43492 1.71484,-9.19141 7.23755,-13.86323 28.68409,-32.03502 38.17774,-39.67578 0.15589,12.18627 -0.1936,40.29246 -6.27149,54.70117 -1.20854,2.86504 -5.99414,7.17774 -5.99414,7.17774 0,0 10.01722,-2 15.0918,-2 5.07458,0 15.0918,2 15.0918,2 0,0 -4.7856,-4.3127 -5.99414,-7.17774 -6.01615,-14.26232 -6.42087,-42.00327 -6.27735,-54.38672 9.31641,8.15974 29.69939,26.98053 36.30274,40.98047 1.32649,2.81239 1.34375,9.25391 1.34375,9.25391 0,0 4.71607,-9.5268 8.23828,-13.41797 3.34696,-3.69755 11.91016,-9.05469 11.91015,-9.05469 0,0 -6.40571,0.68453 -9.3457,-0.32812 -16.05739,-5.53093 -39.58236,-26.8281 -46.86719,-33.65821 7.55376,-6.52922 31.92102,-26.85853 48.18946,-31.73632 2.9785,-0.89303 9.35156,0.0488 9.35156,0.0488 0,0 -8.57195,-5.94514 -11.84766,-9.91992 -3.23342,-3.92345 -7.37695,-13.34961 -7.37695,-13.34961 0,0 -0.27777,6.43695 -1.7168,9.19336 -7.23698,13.86213 -28.68094,32.03197 -38.17578,39.67383 -0.15589,-12.18627 0.19359,-40.29245 6.27149,-54.70117 0.41789,-0.99068 1.27167,-2.15128 2.19922,-3.25 0.14339,-0.007 0.28531,-0.0231 0.42968,-0.0234 6.60803,1e-5 11.96489,6.89151 11.96485,15.39258 2e-5,4.81172 -1.86823,8.89497 -4.13672,12.06445 -0.47839,0.66839 -1.61895,1.9739 -2.75977,2.41016 -0.60854,0.2327 -1.34415,0.25182 -1.95508,0.0254 -0.40631,-0.15054 -0.97461,-0.86133 -0.97461,-0.86133 -1e-5,-1.92961 -1.56453,-3.49219 -3.49414,-3.49219 -1.92961,0 -3.49412,1.56258 -3.49414,3.49219 0,1.20114 0.60596,2.26229 1.46289,2.95899 2.5341,1.8119 5.55623,2.79483 8.73438,2.79882 9.52413,1.6e-4 17.24526,-8.69945 17.24609,-19.43164 1.3e-4,-10.73295 -7.76621,-19.25601 -17.29101,-19.25586 v 0.002 c -0.73036,9.9e-4 -0.73366,0.002 -2.11328,-0.008 0,0 -9.95837,2 -15.00391,2 -5.04554,0 -15.00391,-2 -15.00391,-2 z"
       transform="matrix(0.26458333,0,0,0.26458333,23.523323,56.01757)"
       id="rect830-6-5"
       inkscape:connector-curvature="0" />
  </g>
</svg>
