<?xml version="1.0" encoding="UTF-8"?>
<!-- Generator: Adobe Illustrator 25.1.0, SVG Export Plug-In . SVG Version: 6.00 Build 0)  -->
<svg version="1.1" id="Capa_1" xmlns="http://www.w3.org/2000/svg" xmlns:xlink="http://www.w3.org/1999/xlink" x="0px" y="0px" viewBox="0 0 599.57 599.76" style="enable-background:new 0 0 599.57 599.76;" xml:space="preserve">
<style type="text/css">
	.st0{fill:#FFFFFF;}
</style>
<g>
	<path class="st0" d="M454.24,599.76c0.22-0.33,0.41-0.68,0.65-0.99c15.95-21.7,31.9-43.39,47.84-65.08   c31.56-42.94,63.11-85.89,94.66-128.84c0.69-0.94,1.45-1.85,2.17-2.77"/>
	<path d="M599.57,402.08c-0.73,0.92-1.48,1.82-2.17,2.77c-31.56,42.94-63.11,85.89-94.66,128.84c-15.94,21.7-31.9,43.39-47.84,65.08   c-0.23,0.32-0.43,0.66-0.65,0.99c-98.17,0-196.33,0-294.5,0c-2.72-3.13-5.4-6.29-8.18-9.38c-37.36-41.55-74.74-83.08-112.08-124.63   c-10.58-11.77-21.09-23.6-31.61-35.43c-2.07-2.33-3.95-4.82-6.03-7.14C0.48,421.65,0,420.02,0,417.97c0.05-31.5,0.04-63,0.04-94.5   c0-48.21,0.01-96.42-0.04-144.63c0-2.12,0.42-3.87,1.91-5.43c2.21-2.31,4.24-4.79,6.45-7.09c14.43-14.95,28.89-29.87,43.35-44.8   c24.36-25.14,48.76-50.25,73.09-75.42c14.22-14.71,28.35-29.52,42.51-44.29c0.55-0.57,1.02-1.22,1.53-1.83   c90.17,0,180.34,0,270.51,0c0.71,0.86,1.38,1.75,2.12,2.58c48.24,53.59,96.49,107.17,144.74,160.74c1.82,2.02,3.73,3.95,5.58,5.95   c1.3,1.41,2.62,2.81,3.85,4.27c1.92,2.28,2.88,4.89,2.88,7.93c0,11.59,0.08,23.18,0.13,34.78c0.12,26.94,0.24,53.88,0.37,80.83   c0.07,13.83,0.14,27.66,0.24,41.49c0.01,0.86,0.19,1.72,0.29,2.58C599.57,361.46,599.57,381.77,599.57,402.08z M306.86,593.07   c24.86,0,49.72,0,74.58,0c22.22,0,44.45-0.03,66.67,0.05c2,0.01,3.19-0.61,4.3-2.23c2.52-3.7,5.22-7.27,7.88-10.87   c35.63-48.12,71.27-96.24,106.88-144.37c7.89-10.67,15.69-21.41,23.58-32.08c1.63-2.2,2.49-4.46,2.45-7.3   c-0.19-11.03-0.13-22.07-0.23-33.1c-0.28-33.9-0.6-67.8-0.88-101.7c-0.17-21.51-0.29-43.02-0.43-64.53   c-0.03-4.8-0.12-9.6-0.03-14.39c0.05-2.68-0.8-4.82-2.82-6.57c-0.84-0.73-1.59-1.57-2.34-2.41c-8.22-9.17-16.43-18.34-24.65-27.51   c-30.75-34.28-61.49-68.56-92.27-102.82c-10.31-11.48-20.73-22.86-31.07-34.32c-1.44-1.59-3-2.29-5.22-2.29   C347.41,6.7,261.56,6.7,175.71,6.64c-2.72,0-4.8,0.83-6.62,2.69c-0.78,0.8-1.55,1.61-2.32,2.43c-3.06,3.26-6.08,6.57-9.18,9.79   c-4.04,4.21-8.18,8.33-12.22,12.54c-15.71,16.39-31.33,32.87-47.13,49.18C85.01,96.94,71.51,110.35,58.26,124   c-16.54,17.03-32.94,34.2-49.43,51.28c-1.47,1.53-2.16,3.12-2.16,5.32c0.07,23.75,0.05,47.5,0.05,71.25   c0,54.54,0.01,109.07-0.04,163.61c0,2.7,0.82,4.8,2.7,6.63c1.09,1.06,2.1,2.19,3.11,3.33c32,35.74,63.97,71.49,96,107.21   c17.51,19.52,35.12,38.95,52.62,58.48c1.38,1.54,2.78,2,4.75,2C212.85,593.06,259.86,593.07,306.86,593.07z"/>
	<path d="M312.25,582.57c-54.01,0-99.17-0.01-144.33,0.03c-1.82,0-3.08-0.49-4.33-1.86c-31-34.04-62.06-68.04-93.09-102.06   c-16.16-17.72-32.27-35.49-48.4-53.23c-2.1-2.31-4.22-4.59-6.31-6.9c-2.46-2.73-3.52-5.85-3.49-9.62   c0.2-24.87,0.18-49.73,0.35-74.6c0.11-15.83,0.44-31.66,0.61-47.48c0.17-15.99,0.29-31.98,0.41-47.97   c0.1-12.79,0.19-25.58,0.22-38.38c0.01-3.83-0.09-7.68-0.38-11.5c-0.36-4.74,1.29-8.43,4.66-11.76   c8.98-8.88,17.82-17.91,26.61-26.97c13.03-13.43,25.94-26.96,38.95-40.4c25.84-26.72,51.71-53.41,77.58-80.11   c3.34-3.44,6.8-6.77,10.09-10.26c1.62-1.72,3.42-2.34,5.74-2.33c17.02,0.06,34.05,0.03,51.08,0.03c65.62,0,131.25,0.03,196.87-0.08   c3.33-0.01,5.52,1.11,7.63,3.46c12.65,14.1,25.41,28.11,38.09,42.19c32.68,36.3,65.34,72.62,98.02,108.92   c1.82,2.02,3.76,3.92,5.62,5.9c1.09,1.16,2.16,2.35,3.19,3.57c1.28,1.51,1.82,3.24,1.91,5.27c0.85,19.82,0.42,39.65,0.56,59.48   c0.15,21.03,0.27,42.05,0.42,63.08c0.14,18.55,0.3,37.1,0.45,55.64c0.07,9.43,0.07,18.87,0.24,28.3c0.05,2.64-0.66,4.87-2.25,6.89   c-2.52,3.21-5.13,6.34-7.55,9.62c-16.24,21.99-32.42,44.03-48.67,66.01c-25.33,34.26-50.7,68.49-76.05,102.72   c-3.59,4.85-3.79,5.02-9.75,4.87C392.43,581.9,347.92,583,312.25,582.57z M481.89,85.27c-0.76-0.89-1.21-1.44-1.68-1.96   c-17.41-19.28-34.84-38.55-52.2-57.88c-1.26-1.41-2.53-1.85-4.33-1.85c-22.7,0.05-45.4,0.03-68.1,0.03c-58.11,0-116.22,0-174.33,0   c-0.72,0-1.44,0.01-2.16,0c-1.79-0.03-3.24,0.67-4.42,2.02c-1.42,1.62-2.85,3.24-4.36,4.79c-7.92,8.13-15.89,16.22-23.8,24.35   c-27.65,28.42-55.29,56.85-82.91,85.3c-13.31,13.71-26.52,27.51-39.89,41.16c-2.47,2.52-3.95,5.15-3.6,8.69   c0.04,0.4,0,0.8,0.01,1.2c0.06,11.35,0.2,22.7,0.16,34.06c-0.08,23.03-0.27,46.05-0.41,69.08c-0.17,28.62-0.32,57.25-0.52,85.87   c-0.04,5.11-0.34,10.23-0.44,15.34c-0.08,4.15-0.08,8.31-0.05,12.47c0.02,2.82,1.02,5.18,2.98,7.33   c39.55,43.35,79.05,86.74,118.55,130.13c8.72,9.58,17.43,19.16,26.1,28.78c1.11,1.23,2.26,1.7,3.93,1.7   c89.04-0.04,178.09-0.04,267.13,0c1.71,0,2.74-0.56,3.74-1.92c33.39-45,66.83-89.97,100.25-134.95   c10.44-14.05,20.85-28.13,31.29-42.18c1.24-1.67,1.84-3.44,1.82-5.55c-0.17-19.19-0.25-38.38-0.41-57.56   c-0.21-24.22-0.54-48.45-0.69-72.67c-0.14-23.26-0.17-46.53-0.12-69.8c0.01-3.58-0.87-6.55-3.44-9.07   c-2.34-2.3-4.59-4.68-6.79-7.11c-26.17-28.93-52.33-57.87-78.49-86.81c-0.56-0.62-1.15-1.19-1.73-1.79   c0.39,2.33-0.71,3.92-2.09,5.29c-2.27,2.25-4.62,4.42-7.01,6.54c-3.74,3.34-6.72,7.28-9.27,11.55c-1.32,2.22-2.29,4.58-2.24,7.24   c0.06,3.62-0.2,4.51,4.7,4.83c3.32,0.22,6.12-1.23,8.44-3.41c2.26-2.12,4.29-4.51,6.36-6.84c2.29-2.56,4.47-5.22,6.78-7.76   c0.85-0.93,1.87-1.77,2.94-2.42c1.46-0.89,2.83-0.68,3.99,0.33c1.24,1.07,1.69,2.54,0.91,4.1c-0.7,1.41-1.63,2.75-2.66,3.94   c-2.61,3.03-5.26,6.02-8.03,8.9c-2.49,2.58-5.08,5.09-7.8,7.42c-2.45,2.1-5.36,3.48-8.55,4.14c-9.02,1.88-16.36-5.16-14.83-14.2   c0.6-3.52,1.93-6.76,3.72-9.81c4.52-7.69,10.71-13.9,17.51-19.54C477.44,85.43,479.25,84.48,481.89,85.27z"/>
	<path d="M427.77,95.76c5.08-4.67,9.91-9.1,14.72-13.53c4.59-4.22,9.15-8.47,13.75-12.67c1.06-0.96,2.2-1.85,3.41-2.61   c1.06-0.66,2.26-0.84,3.36,0.03c1.06,0.83,1.03,2,0.66,3.07c-1.27,3.72,0.1,7.19,0.71,11.11c1.12-0.89,1.94-1.63,2.85-2.25   c1.18-0.8,2.4-1.57,3.66-2.24c1.02-0.54,2.04-0.38,2.82,0.54c0.79,0.92,0.73,2,0.06,2.88c-0.9,1.2-1.89,2.38-3.01,3.38   c-5.78,5.16-11.63,10.25-17.43,15.4c-1.61,1.43-3.09,3.02-4.69,4.46c-1.07,0.96-2.21,1.84-3.4,2.63c-0.88,0.58-1.97,1.01-2.86,0.09   c-0.85-0.88-1.28-1.98-0.82-3.29c0.23-0.65,0.51-1.41,0.37-2.02c-0.29-1.31,0.28-2.26,1.12-2.98c1.2-1.03,2.56-1.89,3.91-2.73   c2.17-1.35,4.4-2.6,6.59-3.91c3.21-1.91,4.7-4.67,4.12-8.44c-0.27-1.72-0.5-3.44-0.79-5.49c-0.77,0.51-1.32,0.77-1.74,1.17   c-4.19,3.95-8.36,7.91-12.52,11.88c-1.44,1.38-2.78,2.87-4.27,4.2c-1.98,1.76-4.26,2.81-7.01,2.46c-0.53-0.07-1.07-0.01-2.07-0.01   c0.79,0.98,1.29,1.65,1.85,2.28c19.58,21.95,39.17,43.9,58.76,65.85c9.74,10.91,19.5,21.81,29.26,32.71   c1.39,1.55,2.84,3.03,4.27,4.54c1.49,1.58,2.26,3.4,2.25,5.62c-0.04,11.75-0.03,23.5-0.04,35.25c-0.01,8.48-0.03,16.95-0.03,25.43   c0,27.91-0.02,55.81,0.01,83.72c0,4.32,0.25,8.63,0.28,12.95c0.02,2.31-0.11,4.63-0.27,6.94c-0.19,2.67-1.63,4.79-3.17,6.87   c-5.63,7.57-11.29,15.11-16.84,22.74c-26.97,37.02-53.91,74.06-80.85,111.1c-1.97,2.71-3.82,5.52-5.67,8.32   c-1.3,1.96-3,3.03-5.4,2.87c-0.8-0.05-1.6,0.01-2.4,0c-9.27-0.12-18.54-0.35-27.81-0.36c-61.47-0.03-122.93-0.03-184.4,0.03   c-2.37,0-3.96-0.71-5.54-2.46c-28.33-31.5-56.71-62.96-85.12-94.39c-10.24-11.33-20.54-22.59-30.93-33.78   c-2.6-2.79-3.59-5.76-3.33-9.55c0.37-5.42,0.34-10.86,0.39-16.3c0.14-15.59,0.25-31.18,0.35-46.77   c0.19-28.86,0.39-57.72,0.54-86.58c0.04-8.47,0.07-16.95-0.15-25.42c-0.09-3.57,1.05-6.29,3.55-8.75   c32.87-32.37,63.77-66.65,95.92-99.72c8.19-8.43,16.32-16.91,24.48-25.36c0.72-0.75,1.51-1.43,2.28-2.13   c1.11-1,2.41-1.54,3.93-1.53c0.88,0,1.76-0.03,2.64-0.03c38.92,0.07,77.85,0.16,116.77,0.22c20.06,0.03,40.12,0.02,60.19-0.01   c5.03-0.01,10.07-0.17,15.1-0.26c0.32-0.01,0.64,0,0.96-0.04c3.22-0.36,5.59,0.89,7.69,3.38c5.26,6.23,10.73,12.28,16.12,18.39   C425.8,93.66,426.74,94.64,427.77,95.76z M305.31,517.23c28.3,0,56.59-0.02,84.89,0.02c5.67,0.01,11.34,0.21,17.01,0.33   c0.96,0.02,1.92,0.01,2.88,0.03c2.33,0.04,4.16-0.84,5.51-2.79c1.55-2.23,3.13-4.44,4.73-6.64c22.81-31.35,45.62-62.7,68.45-94.03   c9.04-12.4,18.09-24.8,27.21-37.14c1.93-2.61,2.87-5.28,2.87-8.61c-0.09-45.58-0.06-91.16-0.06-136.73c0-1.84,0.05-3.68,0.07-5.52   c0.06-5.19,0.12-10.39,0.19-15.58c0.03-2.37-0.83-4.36-2.44-6.06c-1.81-1.91-3.68-3.79-5.44-5.75   c-34.85-38.97-69.72-77.93-104.49-116.97c-2.69-3.02-5.52-4.27-9.57-4.17c-12.3,0.32-24.61,0.34-36.92,0.38   c-10.87,0.04-21.74-0.04-32.61-0.06c-39.16-0.08-78.33-0.14-117.49-0.3c-3.32-0.01-5.92,0.92-7.97,3.49   c-0.3,0.38-0.63,0.73-0.95,1.08c-3.22,3.55-6.34,7.2-9.67,10.65c-18.54,19.21-37.15,38.36-55.69,57.57   c-13.77,14.27-27.44,28.62-41.2,42.9c-3.05,3.16-6.18,6.26-9.42,9.23c-2.56,2.35-3.7,5.12-3.42,8.53c0.03,0.32,0.01,0.64,0.02,0.96   c0.09,3.44,0.27,6.87,0.26,10.31c-0.17,41.26-0.32,82.51-0.58,123.77c-0.06,9.59-0.51,19.17-0.75,28.76   c-0.07,2.64-0.07,5.28-0.06,7.91c0.01,2.84,0.95,5.3,2.99,7.34c1.64,1.64,3.22,3.33,4.78,5.05c12.92,14.29,25.83,28.59,38.75,42.88   c23.27,25.73,46.57,51.44,69.8,77.21c1.29,1.43,2.56,2.01,4.5,2.01C236.09,517.21,270.7,517.23,305.31,517.23z"/>
	<path d="M232.26,35.7c0,2.38,0.01,4.76,0,7.14c-0.03,7.11-0.1,14.22-0.09,21.33c0,1.38-0.36,2.49-1.37,3.4   c-1.47,1.33-3.4,0.93-3.99-0.94c-0.3-0.96-0.34-2.04-0.35-3.07c-0.02-7.19-0.08-14.38,0.04-21.56c0.08-4.7,0.33-9.41,0.72-14.1   c0.21-2.47,1.78-3.13,3.98-1.97c0.42,0.22,0.84,0.5,1.16,0.84c1.33,1.43,2.88,2.45,4.76,3.08c1.01,0.34,1.87,1.11,3.1,1.87   c0.2-1.26,0.35-2.26,0.53-3.24c0.14-0.78,0.28-1.57,0.49-2.34c0.25-0.92,0.84-1.56,1.85-1.62c1.11-0.06,1.84,0.58,2.15,1.57   c0.34,1.06,0.54,2.16,0.76,3.25c0.14,0.68,0.2,1.38,0.32,2.23c3.13-0.99,6.01-1.97,7.98-4.68c0.84-1.16,1.92-2.32,3.6-1.76   c1.72,0.57,1.99,2.14,2.11,3.69c0.07,0.87,0.04,1.76,0.05,2.63c0.06,6.39,0.12,12.77,0.16,19.16c0.03,4.63,0.15,9.27,0,13.89   c-0.12,3.55-1.04,4.12-4.85,3.62c-0.95-1.94-0.84-4.13-0.98-6.25c-0.1-1.59,0.17-3.19,0.14-4.79c-0.14-6.95-0.32-13.89-0.5-20.84   c-0.01-0.22-0.12-0.44-0.24-0.85c-2.5,0.72-4.76,1.8-6.66,3.5c-0.45,0.4-0.68,1.26-0.68,1.9c0,7.19,0.05,14.38,0.11,21.57   c0.01,0.95,0.24,1.9,0.3,2.85c0.11,1.72-0.62,2.51-2.34,2.62c-2.36,0.15-3.13-0.37-3.24-2.68c-0.24-4.94-0.36-9.89-0.48-14.84   c-0.05-2.4-0.12-4.81,0.09-7.19c0.2-2.22-0.67-3.63-2.52-4.66c-1.86-1.04-3.66-2.16-5.49-3.25   C232.68,35.43,232.47,35.57,232.26,35.7z"/>
	<path d="M61.73,305.65c-0.42,2.83-0.78,5.59-1.25,8.34c-0.23,1.33-0.52,2.68-1,3.93c-0.74,1.95-1.46,2.06-3.18,0.73   c-0.18-0.14-0.37-0.26-0.59-0.41c-0.56,0.86-0.96,1.88-1.7,2.45c-0.52,0.4-1.52,0.19-2.58,0.28c-0.5-1.36-1.05-2.66-1.47-4   c-0.69-2.21-1.21-4.47-1.98-6.65c-0.42-1.18-1.11-2.31-1.86-3.31c-0.48-0.63-1.31-0.99-2.44-1.79c0,1.9-0.01,3.23,0,4.55   c0.02,2.55,0.12,5.11,0.05,7.66c-0.02,0.84-0.34,1.73-0.74,2.49c-0.44,0.85-1.31,1.16-2.26,0.94c-0.86-0.2-1.38-0.79-1.46-1.68   c-0.06-0.63-0.08-1.27-0.08-1.91c-0.05-9.19-0.09-18.37-0.14-27.56c-0.01-2.56-0.09-5.11-0.08-7.67c0.01-2.11,0.57-2.95,2.63-3.4   c4.78-1.04,7.87,0.41,9.48,4.29c1.84,4.42,2.2,8.98,1.03,13.61c-0.24,0.97-0.85,1.88-1.39,2.75c-0.45,0.74-1.04,1.39-1.54,2.05   c0.14,0.35,0.16,0.63,0.32,0.77c2.11,1.86,2.86,4.35,3.31,7c0.27,1.57,0.59,3.14,0.9,4.7c0.21,1.06,0.73,1.88,1.85,2.53   c0.53-3.8,0.9-7.45,1.56-11.04c1.22-6.59,2.57-13.16,3.97-19.71c0.29-1.38,0.88-2.76,1.62-3.96c1.26-2.01,3.37-2.02,4.67-0.03   c0.77,1.18,1.35,2.56,1.68,3.93c1.02,4.19,1.86,8.42,2.83,12.61c0.19,0.81,0.57,1.63,1.05,2.31c0.69,0.97,1.13,1.95,0.74,3.12   c-0.65,1.99-0.35,3.93,0.06,5.91c0.34,1.64,0.61,3.31,0.69,4.97c0.1,1.9-0.52,2.68-1.86,2.83c-1.47,0.17-2.39-0.49-2.76-2.35   c-0.31-1.56-0.36-3.17-0.52-4.76c-0.06-0.56-0.1-1.11-0.16-1.67c-0.27-2.36-0.37-2.46-2.75-2.71c-1.19-0.13-2.39-0.2-3.58-0.28   C62.57,305.49,62.34,305.56,61.73,305.65z M43.79,295.58c3.2-0.16,3.92-0.74,4.1-3.39c0.08-1.18,0.01-2.4-0.22-3.56   c-0.51-2.56-0.89-2.8-3.88-2.95C43.79,288.93,43.79,292.17,43.79,295.58z M67.47,299.33c-0.76-3.32-1.48-6.49-2.21-9.66   c-1.39,3.11-2.1,6.23-2.36,9.66C64.51,299.33,65.83,299.33,67.47,299.33z"/>
	<path d="M258.03,535.23c0.19-1.26,0.31-2.2,0.47-3.14c0.13-0.7,0.17-1.48,0.51-2.07c0.32-0.55,0.92-1.1,1.51-1.28   c0.86-0.27,1.6,0.3,1.86,1.13c0.38,1.21,0.61,2.47,0.85,3.71c0.11,0.54,0.09,1.1,0.14,1.79c1.46,0.04,2.42-0.82,3.37-1.58   c1.49-1.2,2.86-2.55,4.37-3.73c1.96-1.53,3.1-1.24,3.83,1.19c0.47,1.58,0.61,3.3,0.61,4.96c-0.06,10.06-0.2,20.13-0.31,30.19   c0,0.4-0.05,0.8-0.08,1.2c-0.23,3.04-1.03,3.55-4.37,2.65c-1.1-10.18-0.55-20.47-0.78-31.1c-1.77,0.79-3.3,1.39-4.75,2.15   c-1.41,0.74-1.94,2.09-1.91,3.62c0.04,2.32,0.16,4.63,0.22,6.94c0.11,4.15,0.24,8.3,0.26,12.45c0.01,1.26-0.24,2.54-0.51,3.79   c-0.3,1.42-0.92,1.83-2.3,1.95c-1.25,0.1-1.75-0.7-1.98-1.66c-0.26-1.07-0.45-2.19-0.47-3.3c-0.12-6.55-0.21-13.1-0.25-19.65   c-0.01-1.22-0.28-2.19-1.31-2.88c-1.69-1.14-3.38-2.3-5.43-3.7c-0.08,1.04-0.15,1.55-0.15,2.06c-0.02,8.71-0.03,17.42-0.04,26.13   c0,0.32,0.01,0.64-0.02,0.96c-0.16,1.54-1.22,2.5-2.69,2.44c-1.46-0.06-2.48-1.07-2.5-2.65c-0.02-1.12,0.16-2.23,0.16-3.35   c0.01-6.23-0.09-12.46,0.02-18.69c0.08-4.87,0.41-9.73,0.64-14.59c0.02-0.39,0.14-0.77,0.22-1.17c1.72-0.76,3.13-0.39,4.41,0.85   c0.74,0.72,1.47,1.49,2.32,2.06C255.13,533.7,256.42,534.33,258.03,535.23z"/>
	<path d="M556.82,399.94c-2.5-0.2-4.64-0.38-7.03-0.57c-0.21,0.85-0.46,1.65-0.6,2.48c-0.33,2.05-0.6,4.11-0.92,6.16   c-0.09,0.55-0.26,1.09-0.45,1.61c-0.74,2.06-1,2.19-3.14,1.7c-0.22-0.05-0.46-0.04-0.78-0.07c-0.54,0.94-1.08,1.89-1.7,2.96   c-5.93-1.44-11.76-1.34-17.65,0.46c-0.44-0.39-0.88-0.84-1.37-1.22c-1.48-1.18-1.64-2.64-0.98-4.29c0.86-2.15,1.65-4.33,2.64-6.42   c1.92-4.04,3.96-8.01,5.94-12.02c0.45-0.91,0.83-1.85,1.38-3.08c-3.76,0.1-7.21-0.18-10.36,1.46c-1.27,0.66-2.31,0.35-2.95-0.54   c-0.82-1.15-0.95-2.63-0.04-3.54c0.71-0.71,1.62-1.32,2.56-1.69c4.7-1.85,9.61-2.28,14.59-1.81c2.05,0.2,3.5,2.38,2.92,4.39   c-0.35,1.21-1.03,2.32-1.6,3.46c-2.44,4.84-4.92,9.67-7.35,14.52c-0.38,0.77-0.6,1.61-1.02,2.74c5-0.25,9.75-0.36,14.46,1.23   c0.16-0.51,0.35-0.92,0.44-1.36c1.52-7.59,2.97-15.19,4.57-22.76c0.34-1.61,1.02-3.22,1.86-4.64c1.46-2.46,4.06-2.45,5.57-0.04   c0.67,1.06,1.14,2.29,1.51,3.5c0.74,2.44,1.34,4.93,2,7.39c0.56,2.06,0.92,4.16,2.28,5.96c0.77,1.02,1.4,2.3,0.76,3.81   c-0.25,0.59-0.04,1.42,0.09,2.11c0.26,1.33,0.63,2.64,0.91,3.97c0.41,1.91-0.04,2.79-1.79,3.64c-1.61,0.79-2.88,0.38-3.39-1.34   c-0.43-1.44-0.52-2.98-0.76-4.47C557.23,402.44,557.04,401.28,556.82,399.94z M553.44,386.08c-1.73,2.51-1.87,5.01-2.82,7.67   c1.75,0.13,3.19,0.24,4.95,0.38C554.84,391.32,554.2,388.92,553.44,386.08z"/>
	<path d="M128.21,122.18c2.08,3.33,3.98,6.36,5.87,9.41c0.42,0.68,0.86,1.35,1.17,2.08c0.79,1.86,0.24,3.55-1.41,4.55   c-1.53,0.93-3.22,0.65-4.47-0.87c-0.7-0.86-1.29-1.83-1.82-2.81c-2.95-5.49-5.98-10.94-8.74-16.52c-1.94-3.93-3.58-8.01-5.18-12.1   c-0.54-1.38-0.77-2.96-0.78-4.45c-0.02-3.12,1.98-5.02,5.1-5.16c2.37-0.1,4.6,0.51,6.75,1.4c4.06,1.67,8.1,3.4,12.14,5.14   c1.04,0.45,1.94,0.73,3.16,0.35c1.82-0.56,3.47,0.33,4.16,2.32c0.51,1.48,1.51,2.18,2.74,2.78c1.15,0.56,2.35,1.01,3.48,1.6   c0.77,0.4,1.54,0.88,2.16,1.48c1.3,1.26,1.46,3.12,0.51,4.6c-0.92,1.44-2.48,2.05-4.18,1.35c-1.23-0.51-2.34-1.35-3.46-2.1   c-1.26-0.84-2.45-1.79-3.71-2.62c-1.04-0.68-2.05-0.64-3.05,0.26C135.27,115.93,131.86,118.94,128.21,122.18z M119.71,103.16   c1.34,4.72,3.29,8.74,5.32,13.04c3.03-2.41,5.61-4.92,8.44-7.47C128.91,106.5,124.67,104.56,119.71,103.16z"/>
	<path d="M303.48,53.02c0.31,1.52,0.64,2.9,0.86,4.31c0.42,2.68,0.84,5.36,1.11,8.06c0.14,1.38-0.89,2.65-2.14,3.12   c-1.55,0.58-3.16,0.04-3.79-1.54c-0.53-1.32-0.9-2.75-1.06-4.16c-0.85-7.62-1.61-15.25-2.38-22.88c-0.09-0.87-0.05-1.76-0.03-2.64   c0.03-1.77,0.63-3.35,2.05-4.42c5.33-4.02,11.16-5.81,17.74-3.6c1.12,0.38,2.2,0.97,3.17,1.65c4.1,2.84,5.18,7.41,2.84,11.81   c-1.3,2.45-3.22,4.36-5.52,5.88c-0.59,0.39-1.18,0.76-1.96,1.27c0.63,0.59,1.12,1.06,1.62,1.52c2.62,2.34,5.28,4.65,7.85,7.05   c0.86,0.81,1.62,1.79,2.2,2.81c0.99,1.76,0.64,3.3-0.75,4.24c-1.46,0.99-2.95,0.79-4.31-0.57c-0.22-0.23-0.44-0.47-0.62-0.73   c-3.08-4.42-7.61-7.26-11.67-10.59C307.28,52.48,305.6,51.92,303.48,53.02z M302.8,46.02c0.34,0.16,0.56,0.37,0.76,0.35   c4.43-0.28,8.47-1.63,11.69-4.77c2.64-2.58,1.75-5.79-1.84-6.72c-3.4-0.88-6.63-0.21-9.66,1.53c-1.1,0.63-1.51,1.56-1.41,2.79   C302.51,41.42,302.64,43.65,302.8,46.02z"/>
	<path d="M532.77,188.38c-2.88-3.44-5.53-6.6-8.35-9.96c-2.95,2.09-5.67,4.02-8.38,5.95c-0.97,0.69-1.88,1.51-2.93,2.06   c-1.47,0.79-2.83,0.51-3.71-0.52c-1.04-1.22-1.14-2.89-0.1-4.19c0.64-0.8,1.42-1.54,2.27-2.1c8.22-5.38,16.22-11.12,25.07-15.45   c2.27-1.11,4.7-2.04,7.16-2.62c3.29-0.78,5.22,0.83,5.57,4.17c0.22,2.06-0.34,3.98-1.21,5.79c-2.18,4.53-4.4,9.05-6.65,13.55   c-0.54,1.08-1.06,2.01-0.59,3.36c0.58,1.66-0.54,2.9-1.9,3.43c-2.21,0.85-3.03,2.67-3.94,4.55c-0.7,1.43-1.46,2.84-2.34,4.17   c-0.78,1.18-1.94,1.88-3.44,1.83c-1.88-0.06-2.92-1.17-2.41-2.96c0.48-1.67,1.23-3.28,2.07-4.81   C530.1,192.53,531.43,190.54,532.77,188.38z M542.47,169.03c-2.64,0.07-9.57,3.55-12.2,6.04c1.86,2.23,3.73,4.47,5.92,7.11   C538.4,177.55,540.41,173.34,542.47,169.03z"/>
	<path d="M271.05,54.98c-0.35,1.52-0.72,2.88-0.98,4.26c-0.37,2.04-0.59,4.11-1.03,6.13c-0.21,0.99-0.66,1.98-1.21,2.83   c-0.78,1.2-2.29,1.62-3.61,1.25c-1.32-0.38-2.24-1.52-2.21-3.07c0.02-1.1,0.2-2.23,0.5-3.3c1.83-6.52,3.67-13.05,5.61-19.54   c1.12-3.75,2.63-7.36,4.81-10.65c0.35-0.53,0.73-1.05,1.14-1.54c2.15-2.6,5.22-2.86,7.59-0.43c1.03,1.05,1.83,2.43,2.4,3.8   c1.78,4.27,3.42,8.59,5.09,12.91c0.31,0.81,0.54,1.54,1.41,2.08c1.76,1.08,2.23,2.45,1.54,4.53c-0.38,1.15-0.3,2.08,0.14,3.18   c0.93,2.33,1.26,4.78,0.93,7.28c-0.23,1.74-0.94,2.66-2.08,2.88c-1.36,0.25-3.19-0.62-3.68-2.06c-0.51-1.49-0.69-3.1-1.04-4.65   c-0.29-1.32-0.5-2.67-0.97-3.93c-0.2-0.54-0.95-1.19-1.5-1.23C279.72,55.39,275.51,55.21,271.05,54.98z M278.13,36.54   c-2.67,3.9-3.73,7.88-4.86,11.89c2.88,0.72,7.61,0.81,9.62,0.2C281.35,44.72,279.82,40.83,278.13,36.54z"/>
	<path d="M165.93,93.34c-1.09-2.46-2.02-5.01-3.29-7.37c-2.2-4.07-4.67-8-6.92-12.05c-1.36-2.44-2.63-4.93-3.73-7.49   c-0.52-1.21-0.77-2.62-0.79-3.94c-0.03-2.07,1.5-3.41,3.53-3.41c2.13,0.01,3.88,1.48,3.68,3.52c-0.14,1.43,0.38,2.48,0.99,3.59   c3.47,6.38,7,12.73,10.4,19.15c1.04,1.96,1.85,4.06,2.51,6.18c0.39,1.26,0.43,2.69,0.36,4.02c-0.2,3.66-2.11,5.5-5.72,5.15   c-2.18-0.21-4.4-0.83-6.43-1.69c-2.93-1.24-5.71-2.84-8.55-4.3c-3.4-1.76-6.71-3.73-10.22-5.25c-3.06-1.32-6.33-2.14-9.51-3.17   c-0.68-0.22-1.41-0.31-2.08-0.54c-1.8-0.62-2.46-1.68-2.21-3.45c0.23-1.56,1.18-2.48,2.95-2.58c1.1-0.06,2.29-0.07,3.31,0.27   c4.08,1.36,8.22,2.63,12.13,4.39c5.3,2.4,10.41,5.23,15.61,7.86c1.13,0.57,2.29,1.06,3.44,1.58   C165.57,93.67,165.75,93.5,165.93,93.34z"/>
	<path d="M304.79,547.21c-0.33,3.22-0.63,7.12-1.18,10.99c-0.37,2.63-1.5,5.03-2.95,7.28c-4.24,6.56-14.84,6.98-19.08-0.43   c-2.52-4.4-3.66-9.18-4.24-14.13c-0.63-5.34-0.69-10.7,0.43-15.99c0.28-1.3,0.74-2.64,1.45-3.77c1.2-1.92,3.43-1.7,4.25,0.42   c0.48,1.23,0.69,2.64,0.69,3.97c0,2.71-0.11,5.44-0.38,8.14c-0.47,4.7,0.21,9.25,1.64,13.7c0.46,1.42,1.16,2.83,2.03,4.04   c1.64,2.28,3.8,2.49,6.03,0.84c1.54-1.14,2.49-2.67,2.97-4.51c1.19-4.56,1.09-9.17,0.76-13.82c-0.18-2.47-0.29-4.95-0.25-7.42   c0.02-1.17,0.34-2.37,0.73-3.49c0.39-1.12,1.29-1.79,2.55-1.87c1.29-0.08,2.21,0.57,2.65,1.67c0.53,1.32,1.04,2.71,1.2,4.11   C304.42,540.13,304.54,543.32,304.79,547.21z"/>
	<path d="M240.16,551.5c-0.26,5.38-0.89,8.97-2.13,12.47c-1.45,4.06-4.23,6.35-8.41,7.29c-7.97,1.78-14.21-1.57-16.66-9.34   c-2.4-7.63-1.46-14.99,2.46-21.93c1.78-3.15,4.33-5.53,7.96-6.45c5.96-1.53,12.65,2.09,15.08,8.15   C239.95,545.38,240.16,549.28,240.16,551.5z M233.68,552.51c0.04-3.09-0.51-6.04-2.03-8.77c-2.83-5.08-9.27-4.38-11.55-0.22   c-2.91,5.3-3.61,10.91-1.7,16.66c1,3,3.17,4.97,6.52,5.2c3.31,0.23,5.4-1.57,6.85-4.3C233.21,558.4,233.71,555.51,233.68,552.51z"/>
	<path d="M352.01,55.53c-0.47,2.75-0.86,5.26-1.33,7.75c-0.27,1.4-0.53,2.84-1.05,4.16c-0.76,1.93-2.44,2.63-4.27,2.03   c-1.69-0.55-2.53-2.04-2.22-3.99c0.1-0.63,0.24-1.26,0.42-1.87c2.19-7.17,4.29-14.37,6.66-21.48c1-3,2.5-5.86,3.96-8.68   c0.78-1.51,2.1-2.58,3.93-2.84c1.97-0.28,3.73,0.15,4.93,1.75c1,1.32,1.88,2.78,2.53,4.3c1.72,4.03,3.28,8.14,4.91,12.21   c0.26,0.64,0.39,1.25,1.22,1.61c1.88,0.82,2.51,2.11,1.73,4.04c-0.64,1.58-0.32,2.88,0.11,4.35c0.52,1.75,0.91,3.56,1.12,5.36   c0.2,1.67-0.89,2.96-2.44,3.3c-1.36,0.3-2.56-0.29-3.27-1.8c-0.47-1-0.75-2.1-1.05-3.17c-0.44-1.61-0.78-3.26-1.23-4.87   c-0.21-0.76-0.52-1.52-1.55-1.56C360.91,55.95,356.7,55.75,352.01,55.53z M364.31,49.97c-1.69-4.13-3.24-7.9-4.84-11.79   c-2.26,2.19-4.55,7.83-4.66,11.24C357.82,49.59,360.83,49.77,364.31,49.97z"/>
	<path d="M313.46,540.51c0,3.25-0.08,6.1,0.02,8.95c0.14,4.23,0.49,8.46,0.56,12.69c0.03,1.89-0.28,3.82-0.68,5.68   c-0.18,0.87-0.78,1.79-1.45,2.39c-1.13,1.02-2.58,0.54-2.88-0.97c-0.47-2.34-0.97-4.72-1.03-7.1c-0.17-6.47-0.14-12.94-0.16-19.41   c-0.01-3.19,0-6.38,0.07-9.57c0.02-0.78,0.25-1.58,0.49-2.33c0.58-1.85,2.02-2.34,3.67-1.25c0.32,0.21,0.74,0.5,0.83,0.83   c0.71,2.58,3.03,3.56,4.87,5.02c1.22,0.98,2.46,1.94,4.02,3.17c0.12-1.73,0.17-3.05,0.31-4.36c0.11-1.03,0.2-2.08,0.53-3.05   c0.4-1.2,1.4-1.68,2.66-1.57c1.12,0.1,1.73,0.75,1.94,1.8c0.14,0.7,0.27,1.42,0.29,2.13c0.32,10.94,0.66,21.89,0.07,32.83   c-0.03,0.56-0.04,1.12-0.1,1.68c-0.22,2.21-1.43,3.06-3.39,2.06c-2.36-1.21-4.21-3.11-4.27-5.9c-0.05-2.04,0.46-4.1,0.82-6.14   c0.42-2.35,1.04-4.67,1.39-7.03c0.29-1.97-0.22-3.7-1.8-5.17C318.2,544,316.37,541.89,313.46,540.51z"/>
	<path d="M101.04,461.01c0,1.01,0.03,1.88-0.01,2.74c-0.15,3.44-1.16,6.6-3.18,9.4c-0.57,0.79-0.93,1.53-0.88,2.61   c0.11,2.04-0.95,3.1-2.76,3.13c-1.86,0.02-3.07-1.21-3.15-3.17c-0.07-1.78,0.79-3.25,1.65-4.68c1.83-3.01,2.45-6.24,1.8-9.67   c-0.26-1.37-0.83-2.68-1.43-4.52c-1.38,1.51-2.41,2.59-3.38,3.72c-1.25,1.45-2.38,3.02-3.73,4.37c-0.69,0.7-1.69,1.21-2.64,1.51   c-1.13,0.35-2.25,0-2.95-1.06c-0.62-0.95-0.6-1.99-0.02-2.95c0.41-0.67,0.89-1.36,1.48-1.87c6.75-5.83,12.2-12.87,18.14-19.45   c1.23-1.36,2.62-2.6,3.77-4.02c1.26-1.54,2.79-1.14,4.02-0.24c0.57,0.42,1.04,0.99,1.54,1.51c0.83,0.87,1.57,1.82,2.46,2.62   c2.9,2.6,3.4,5.89,2.61,9.43C113.02,456.67,108.3,460.4,101.04,461.01z M99.02,450.98c2.44,2.6,4.59,3.38,6.61,2.57   c1.73-0.69,2.6-2.03,2.73-3.86c0.17-2.4-1.12-4.49-3.53-5.69C102.92,446.3,101,448.6,99.02,450.98z"/>
	<path d="M132.73,504.4c-2.39,1.84-4.54,3.5-6.69,5.14c-0.82,0.63-1.62,1.32-2.53,1.8c-1.56,0.84-2.8,0.66-3.73-0.34   c-0.97-1.05-1.23-2.99-0.39-4.24c0.52-0.78,1.21-1.52,1.97-2.06c6.74-4.72,13.44-9.5,20.33-14c2.29-1.5,5.06-2.28,7.64-3.32   c0.57-0.23,1.26-0.26,1.89-0.23c1.97,0.09,3.07,1.15,3.28,3.13c0.26,2.39-0.38,4.59-1.5,6.68c-1.92,3.59-3.84,7.19-5.78,10.77   c-0.46,0.84-0.9,1.6-0.67,2.68c0.28,1.32-0.51,2.34-1.58,2.99c-2.37,1.45-3.75,3.64-4.89,6.06c-0.34,0.72-0.71,1.44-1.14,2.1   c-1.27,1.93-3.21,2.46-4.93,1.4c-1.62-1-2.05-2.85-0.96-4.85c0.57-1.04,1.41-1.93,2.13-2.88c0.77-1.02,1.66-1.97,2.27-3.07   c0.28-0.51,0.33-1.5,0.01-1.94C136.02,508.29,134.45,506.49,132.73,504.4z M138.77,500.18c1.16,1.43,2.04,2.51,3.05,3.76   c1.8-2.44,2.72-5.06,4.01-7.49c-0.16-0.15-0.33-0.3-0.49-0.45C143.24,497.33,141.14,498.67,138.77,500.18z"/>
	<path d="M502.93,164.66c1.94-1.06,3.96-2.01,5.81-3.21c4.54-2.97,9-6.07,13.49-9.12c2.92-1.98,5.95-3.75,9.52-4.29   c0.63-0.09,1.27-0.19,1.9-0.16c0.36,0.02,0.8,0.19,1.04,0.44c1.21,1.28,1.05,5.62-1.58,5.96c-3.43,0.44-5.98,2.46-8.72,4.25   c-5.21,3.41-10.43,6.81-15.74,10.05c-1.95,1.19-4.17,1.96-6.3,2.82c-0.71,0.28-1.57,0.32-2.35,0.31c-3.14-0.06-4.78-1.74-4.48-4.86   c0.16-1.64,0.61-3.32,1.27-4.82c1.1-2.47,2.42-4.85,3.75-7.22c1.92-3.41,3.96-6.75,5.88-10.15c2.4-4.25,4.38-8.69,5.74-13.39   c0.33-1.14,0.82-2.25,1.38-3.29c0.53-0.99,1.45-1.46,2.62-1.26c1.16,0.2,1.74,0.91,2.04,2.04c0.56,2.06,0.14,4.01-0.66,5.84   c-1.91,4.38-3.84,8.77-6.02,13.02c-2.41,4.68-5.13,9.2-7.69,13.81c-0.5,0.89-0.91,1.83-1.35,2.75   C502.63,164.34,502.78,164.5,502.93,164.66z"/>
	<path d="M342.07,549.53c0-1.55,0.11-3.95-0.04-6.34c-0.1-1.65-0.46-3.3-0.9-4.89c-0.63-2.27-0.18-3.54,2.11-4.26   c4.12-1.31,8.22-0.91,12.17,0.71c10.05,4.13,14.56,16.36,9.64,26.06c-2.11,4.16-5.21,7.42-9.15,9.91c-1.86,1.17-3.9,1.82-6.06,2.07   c-2.2,0.26-4.01-0.51-5.02-2.49c-0.79-1.55-1.42-3.22-1.82-4.9C341.85,560.45,341.83,555.41,342.07,549.53z M349.53,566.59   c5.7-1.63,10.68-7,11.57-12.36c0.53-3.19,0.04-6.23-1.84-8.93c-2.74-3.92-6.71-5.43-11.61-5.83   C347.91,548.55,346.91,557.58,349.53,566.59z"/>
	<path d="M424.08,552.13c-0.03,8.65-6.23,17.34-14.41,20.2c-0.38,0.13-0.76,0.25-1.14,0.35c-3.68,0.94-5.81-0.06-7.28-3.56   c-1.54-3.66-1.94-7.59-2.08-11.48c-0.19-5.26-0.03-10.53-0.09-15.8c-0.01-1.07-0.21-2.2-0.59-3.2c-0.85-2.27-0.36-3.68,1.93-4.57   c2.77-1.08,5.68-0.98,8.5-0.4C417.05,535.34,424.35,543,424.08,552.13z M404.72,539.2c0.33,9.4-0.75,18.5,1.97,27.54   c3.9-1.68,7.06-3.76,9.34-6.99c4.9-6.97,2.26-15.92-5.63-19.01C408.71,540.07,406.89,539.77,404.72,539.2z"/>
	<path d="M54.9,211.36c-0.73,3.6-1.38,6.88-2.05,10.15c-0.18,0.86-0.38,1.71-0.64,2.55c-0.54,1.78-1.16,2.19-2.94,2.04   c-1.43-0.12-2.18-0.85-2.29-2.56c-0.08-1.26-0.06-2.58,0.22-3.8c1.83-7.84,3.66-15.69,5.68-23.48c0.67-2.6,1.77-5.13,2.92-7.57   c0.89-1.88,2.14-3.61,4.66-3.53c2.55,0.08,3.97,1.73,4.74,3.8c1.73,4.63,3.25,9.34,4.78,14.03c0.45,1.37,0.78,2.68,2.05,3.63   c1.12,0.83,1.54,2.09,0.79,3.4c-0.89,1.56-0.57,3.07-0.11,4.63c0.52,1.76,1.08,3.51,1.5,5.29c0.3,1.31,0.01,2.57-1.06,3.49   c-1.5,1.29-3.9,0.82-4.56-1.04c-0.52-1.48-0.65-3.1-0.93-4.67c-0.25-1.41-0.4-2.84-0.71-4.24c-0.18-0.79-0.61-1.43-1.61-1.49   C61.94,211.83,58.53,211.59,54.9,211.36z M60.84,193.46c-0.18,0-0.36,0-0.53-0.01c-1.85,3.48-2.51,7.39-3.83,11.21   c2.73,0.91,5.32,0.7,8.33,0.79C63.41,201.22,62.13,197.34,60.84,193.46z"/>
	<path d="M51.02,258.7c-0.55,3.13-1,6.05-1.6,8.94c-0.29,1.39-0.73,2.78-1.32,4.08c-0.65,1.44-1.52,1.82-2.62,1.5   c-1.43-0.42-2.45-1.56-2.27-2.92c0.41-3,0.78-6.03,1.49-8.97c1.63-6.75,3.36-13.47,5.23-20.16c0.61-2.2,1.53-4.4,2.71-6.35   c2.26-3.77,6.06-3.66,8.34,0.13c0.77,1.29,1.35,2.72,1.83,4.15c1.32,3.93,2.51,7.91,3.82,11.85c0.24,0.71,0.62,1.49,1.17,1.95   c1.49,1.23,1.95,2.78,1.37,4.49c-0.51,1.48-0.22,2.79,0.1,4.19c0.39,1.71,0.73,3.43,0.97,5.17c0.11,0.77-0.03,1.59-0.16,2.37   c-0.17,1.03-0.77,1.76-1.84,1.95c-1.19,0.21-2.33-0.01-2.91-1.15c-0.5-0.97-0.83-2.07-1.05-3.14c-0.39-1.87-0.54-3.8-0.96-5.66   c-0.43-1.91-0.68-2.01-2.58-2.12c-2.79-0.15-5.58-0.32-8.37-0.46C52,258.52,51.61,258.63,51.02,258.7z M52.93,252.13   c2.79,0.09,5.26,0.47,8.16,0.22c-1.38-4.18-2.65-8-4.05-12.24C54.58,243.96,53.84,247.85,52.93,252.13z"/>
	<path d="M117.96,479.23c-0.19-0.11-0.38-0.25-0.59-0.34c-2.16-0.95-2.86-2-2.52-3.74c0.43-2.21,2.02-3.61,4.11-3.63   c2-0.02,3.58,0.82,4.68,2.45c1.26,1.86,1.69,3.91,1.29,6.16c-1.09,6.07-9.56,12.66-16.66,10.86c-4.4-1.11-7.08-3.98-7.5-8.51   c-0.46-4.9,0.68-9.49,3.65-13.35c5.1-6.63,11.95-10.22,20.41-10.37c1.4-0.02,2.89,0.29,4.19,0.81c3.36,1.34,4.08,5.26,1.56,7.85   c-1.65,1.69-3.41,1.68-4.8-0.24c-0.84-1.16-1.79-1.43-3.08-1.23c-3.77,0.59-7.26,1.88-10.36,4.14c-2.55,1.86-4.28,4.3-5.12,7.33   c-1.21,4.36,1.62,7.32,6.05,6.4C116.17,483.21,117.65,481.78,117.96,479.23z"/>
	<path d="M85.73,418.93c0.69-0.36,1.38-0.73,2.08-1.08c0.85-0.43,1.68-0.97,2.59-1.22c1.89-0.52,3.26,0.82,2.66,2.69   c-0.38,1.18-1.08,2.34-1.91,3.26c-1.92,2.13-3.98,4.15-6.05,6.15c-3.41,3.3-6.49,6.86-8.74,11.05c-0.85,1.58-1.5,3.39-1.72,5.16   c-0.32,2.56,0.56,3.23,3.15,3.27c1.95,0.03,3.66-0.64,5.03-1.91c2.58-2.38,5.1-4.83,7.51-7.38c2.14-2.26,4.05-4.73,6.13-7.06   c0.74-0.82,1.59-1.59,2.53-2.17c1.14-0.7,2.53-0.89,3.59,0.06c1.07,0.96,0.9,2.35,0.4,3.58c-0.29,0.73-0.76,1.41-1.27,2.02   c-3.07,3.68-6.14,7.37-9.29,10.98c-2.48,2.84-5.28,5.34-8.59,7.21c-2.43,1.37-5.01,2.04-7.81,1.83c-5.15-0.4-8.6-4.48-8.13-9.64   c0.28-3.02,1.49-5.7,2.96-8.28c3.28-5.73,7.46-10.76,12.05-15.47c0.55-0.57,1.06-1.18,1.58-1.77   C84.9,419.79,85.31,419.36,85.73,418.93z"/>
	<path d="M173.96,65.11c2.39-2.93,4.91-5.38,6.42-8.62c0.47-1.01,0.96-2.03,1.56-2.96c1.1-1.71,2.42-2.11,4.09-1.38   c1.41,0.62,2.24,2.09,1.75,3.78c-0.44,1.51-1.12,3-1.98,4.31c-1.62,2.47-3.44,4.81-5.17,7.21c-0.46,0.64-0.88,1.3-1.32,1.94   c4.84,3.23,12.03,0.7,13.57-4.63c0.24-0.84,0.44-1.7,0.75-2.52c0.62-1.65,1.57-2.3,3.03-2.16c1.41,0.13,2.74,1.27,2.88,2.78   c0.1,1.09,0,2.25-0.29,3.31c-1.96,7.21-8.18,11.43-15.75,10.8c-3.97-0.33-7.46-1.81-10.42-4.41c-7.24-6.35-10.41-14.38-9.42-23.97   c0.15-1.47,0.72-2.95,1.37-4.29c0.78-1.59,2.39-2.28,3.75-1.94c1.51,0.37,3.36,2.34,3.24,3.79c-0.06,0.78-0.52,1.75-1.12,2.22   c-0.96,0.76-1.12,1.63-1.18,2.7c-0.26,4,0.32,7.82,2.35,11.33C172.57,63.28,173.22,64.07,173.96,65.11z"/>
	<path d="M368.74,568.89c0.17-0.78,0.35-1.88,0.64-2.96c1.89-7.01,3.76-14.04,5.74-21.03c0.61-2.14,1.48-4.21,2.35-6.27   c0.36-0.87,0.94-1.68,1.56-2.4c2.08-2.38,5.03-2.46,7.04-0.04c1.05,1.26,1.9,2.8,2.44,4.35c1.08,3.08,1.89,6.26,2.81,9.4   c0.51,1.76,1.03,3.4,2.72,4.59c1.34,0.93,1.53,2.62,0.8,4.14c-0.47,0.97-0.29,1.81-0.04,2.75c0.44,1.7,0.85,3.41,1.12,5.14   c0.13,0.84,0,1.75-0.15,2.61c-0.2,1.15-0.95,1.81-2.13,1.94c-1.13,0.12-2.14-0.2-2.64-1.24c-0.47-0.99-0.79-2.08-1.03-3.16   c-0.37-1.63-0.6-3.3-0.91-4.94c-0.24-1.26-0.94-1.88-2.31-1.92c-2.71-0.08-5.42-0.35-8.13-0.47c-1.71-0.08-1.87,0.01-2.27,1.74   c-0.36,1.55-0.52,3.15-0.78,4.72c-0.28,1.65-0.47,3.33-0.91,4.94c-0.5,1.84-1.64,2.66-3.02,2.49c-1.55-0.19-2.79-1.6-2.9-3.33   C368.73,569.7,368.74,569.46,368.74,568.89z M382.47,542.1c-1.86,3.66-2.94,7.25-3.78,11.05c2.72,0.16,5.16,0.31,7.61,0.46   C386.14,550.94,384.62,546.33,382.47,542.1z"/>
	<path d="M29.25,210.27c-0.15,2.29-0.19,4.45-0.46,6.58c-0.23,1.81-0.59,3.63-1.13,5.37c-0.56,1.79-1.57,2.46-2.68,2.2   c-1.46-0.34-2.38-1.75-2.33-3.41c0.12-4.47,0.31-8.94,0.26-13.41c-0.04-3.51-0.49-7.02-0.6-10.53c-0.07-2.22,0.03-4.48,0.32-6.68   c0.3-2.31,1.02-2.8,3.34-3.31c0.57-0.12,1.12-0.53,1.57-0.93c1.55-1.34,3.31-2.21,5.33-2.58c3.75-0.68,6.88,0.4,8.97,3.61   c3.16,4.87,3.69,10.14,1.7,15.59c-1.06,2.89-3.18,4.74-6.22,5.44c-2.26,0.52-4.52,1-6.78,1.52   C30.14,209.83,29.79,210.04,29.25,210.27z M28.85,203.52c2.21-0.35,4.18-0.64,6.14-0.96c1.44-0.24,2.51-1.03,3.1-2.36   c1.21-2.71,1.17-5.43-0.2-8.07c-0.7-1.35-1.8-2.2-3.42-2.25c-1.72-0.04-5.55,2.5-6.08,4.09c-0.07,0.22-0.05,0.47-0.04,0.71   C28.51,197.54,28.67,200.4,28.85,203.52z"/>
	<path d="M488.08,128.07c1.9,1.45,3.61,2.88,5.44,4.11c1.78,1.19,3.7,2.18,5.59,3.27c0.57,3.73-1.72,5.87-5.33,4.73   c-1.48-0.47-2.88-1.35-4.17-2.25c-1.37-0.95-2.55-2.17-3.85-3.24c-0.66-0.54-1.38-1-2.32-1.67c-1.79,3.57-2.21,6.91-0.62,10.33   c0.74,1.59,2.05,2.63,3.83,2.99c0.7,0.14,1.42,0.26,2.1,0.48c1.85,0.59,2.42,2.01,1.55,3.76c-0.83,1.67-2.85,2.65-4.89,2.1   c-6.25-1.68-8.82-3.8-9.5-10.89c-0.28-2.91,0.32-5.74,1.45-8.43c4.09-9.67,16.02-17.47,26.49-17.27c1.18,0.02,2.41,0.2,3.51,0.6   c1.69,0.61,2.3,2,1.99,3.89c-0.32,1.96-1.69,3.69-3.2,3.72c-0.69,0.01-1.52-0.37-2.06-0.84c-0.68-0.61-1.27-1.11-2.26-1.11   C496.55,122.36,492.09,124.31,488.08,128.07z"/>
	<path d="M20.63,296.93c0-4.07,0.03-8.14-0.01-12.21c-0.03-2.32,0.39-4.29,2.95-5.13c0.58-0.19,1.05-0.71,1.56-1.09   c2.75-2.04,6.32-1.57,8.09,1.36c0.92,1.52,1.46,3.36,1.77,5.13c0.45,2.61,0.22,5.27-0.61,7.81c-0.34,1.02-0.17,1.71,0.43,2.61   c3.93,5.93,4.23,12.27,1.54,18.7c-1.72,4.11-5.63,6.12-9.86,5.64c-2.42-0.27-4.1-1.47-4.69-3.79c-0.55-2.15-0.94-4.38-1.03-6.59   c-0.16-4.14-0.05-8.3-0.05-12.45C20.68,296.93,20.65,296.93,20.63,296.93z M25.46,312.13c3.09,1.4,5.56,0.67,7.09-1.97   c1.09-1.88,1.31-3.93,1.02-6.02c-0.32-2.33-1.14-4.34-3.79-4.91c-0.38-0.08-0.75-0.28-1.1-0.45c-2.02-0.97-2.63-2.78-1.49-4.73   c0.52-0.88,1.29-1.61,1.93-2.42c0.64-0.81,1.4-1.57,1.86-2.47c0.88-1.74-0.04-4.22-1.69-4.95c-1.31-0.58-2.85,0.26-3.77,2.12   c-0.28,0.56-0.49,1.19-0.57,1.81c-0.19,1.34-0.43,2.7-0.38,4.04C24.82,298.84,25.16,305.53,25.46,312.13z"/>
	<path d="M490.1,471.5c0.19-2.13,0.23-3.73,0.49-5.3c0.27-1.61,0.92-2.2,2.04-2.26c1.2-0.06,2.18,0.63,2.31,2.25   c0.25,3.09,0.34,6.21,0.28,9.31c-0.13,7.02-0.59,14.05,0.15,21.07c0.04,0.39,0.06,0.81,0,1.19c-0.14,0.86-0.19,1.83-1.22,2.14   c-1.01,0.31-2.05,0.45-2.93-0.38c-1.77-1.65-3.05-3.53-2.63-6.09c0.39-2.44,0.88-4.87,1.31-7.3c0.15-0.86,0.27-1.73,0.37-2.6   c0.32-2.57-0.35-4.72-2.51-6.33c-1.17-0.87-1.89-2.34-3.74-2.83c-0.05,1.06-0.15,1.9-0.12,2.74c0.16,4.31,0.37,8.62,0.51,12.93   c0.1,2.88-0.03,5.77-0.97,8.52c-0.23,0.67-0.79,1.42-1.4,1.71c-0.89,0.43-1.78-0.06-2.13-0.99c-0.36-0.96-0.69-1.99-0.72-2.99   c-0.2-6.62-0.36-13.25-0.43-19.87c-0.03-3.03,0.15-6.07,0.27-9.1c0.03-0.71,0.13-1.44,0.32-2.13c0.56-2.01,2.34-2.44,3.79-0.94   c0.27,0.28,0.54,0.61,0.7,0.97C485.05,468.02,487.65,469.35,490.1,471.5z"/>
	<path d="M475.04,484.77c-0.02,3.29-0.35,6.54-1.57,9.63c-1.62,4.14-4.4,6.81-9.06,6.99c-4.97,0.2-8.61-1.88-10.4-6.5   c-3.1-8.01-2.32-15.84,2.05-23.22c3.49-5.91,12.3-6.04,16.04,0.42C473.97,475.31,475.06,479.7,475.04,484.77z M456.83,485.1   c0.47,2.24,0.72,4.31,1.35,6.26c0.72,2.23,2.18,3.98,4.74,4.12c2.61,0.15,4.01-1.6,5.09-3.68c0.18-0.35,0.34-0.72,0.47-1.1   c1.31-3.88,1.5-7.81,0.38-11.75c-0.32-1.13-0.85-2.26-1.53-3.21c-2.01-2.8-5.33-2.86-7.46-0.18c-0.58,0.74-1.14,1.59-1.39,2.48   C457.84,480.41,457.36,482.82,456.83,485.1z"/>
	<path d="M546.2,308.67c-1.06,0.25-1.65,0.26-2.11,0.51c-1.19,0.67-2.27,0.73-3.27-0.28c-0.8-0.81-1.05-2.73-0.49-3.85   c0.21-0.42,0.52-0.81,0.88-1.12c2.62-2.24,7.41-1.54,9.29,1.36c1.06,1.64,1.6,3.47,1.68,5.43c0.21,4.94-1.5,9.11-5.22,12.36   c-3.99,3.48-9.03,3.49-13.12,0.14c-2.52-2.06-4.09-4.76-4.63-7.91c-1.5-8.62,0.74-16.3,6.21-23.06c1.73-2.14,4.04-3.36,6.84-3.5   c1.25-0.06,2.47,0.14,2.99,1.48c0.59,1.53,0.95,3.18-0.24,4.53c-0.41,0.47-1.55,0.78-2.1,0.55c-1.93-0.8-3.1,0.13-4.08,1.5   c-3.6,5-5.2,10.59-4.43,16.73c0.56,4.47,3.99,6.77,7.99,5.55c2.44-0.74,4.27-2.98,4.36-5.72   C546.79,311.94,546.42,310.46,546.2,308.67z"/>
	<path d="M183.08,554.35c0.07-6.54,1.58-11.83,4.94-16.52c2.52-3.51,5.82-5.91,10.17-6.56c1.19-0.18,2.65-0.71,3.57,0.55   c1.12,1.51,1.24,3.33,0.59,5.02c-0.25,0.66-1.25,1.33-2,1.45c-3.82,0.63-6.25,2.99-8.06,6.17c-2.15,3.77-3.37,7.8-2.66,12.15   c0.99,6.11,7.72,9.15,13.05,5.98c1.17-0.7,2.33-1.09,3.62-0.55c1.93,0.82,2.54,2.91,1.41,4.84c-1.15,1.96-2.95,3.12-5.12,3.65   c-4,0.98-7.81,0.32-11.28-1.8C185.69,565.29,182.84,560.25,183.08,554.35z"/>
	<path d="M555.14,216.65c1.03,0,1.99,0.14,2.88-0.03c1.88-0.36,3.72-0.92,5.59-1.35c1.09-0.25,2.18-0.51,3.29-0.62   c1.15-0.12,2.32,0.07,2.82,1.31c0.47,1.18,0.42,2.48-0.58,3.34c-0.88,0.76-1.96,1.48-3.07,1.74c-2.24,0.53-4.56,0.78-6.85,1.08   c-1.25,0.16-2.51,0.17-3.8,0.26c1.16,5.27,6.22,7.68,10.68,5.28c0.56-0.3,1.1-0.66,1.68-0.92c1.53-0.68,2.54-0.47,3.42,0.65   c0.98,1.25,1.03,2.8,0.02,3.96c-0.46,0.53-1.05,1.01-1.67,1.33c-6.48,3.37-15.27,2.23-18.59-6.55c-2.68-7.09-1.25-18.33,6.05-24.36   c1.33-1.1,2.88-2.1,4.49-2.64c2.83-0.94,5.11,1.52,4.28,4.37c-0.43,1.49-1,1.99-2.58,1.78c-1.08-0.15-1.83,0.19-2.6,0.85   c-2.77,2.34-4.76,5.16-5.46,8.78C555.05,215.42,555.14,215.97,555.14,216.65z"/>
	<path d="M490.34,441.1c0.23-7.8,2.79-14.43,9.57-18.85c1.43-0.93,3.14-1.62,4.81-1.96c2.31-0.47,4.02,1.06,4.31,3.39   c0.25,2.02-0.6,3.57-2.71,3.81c-6.37,0.75-11.48,9.66-9.41,16.7c1.11,3.78,3.66,5.98,7.57,6.24c0.9,0.06,1.85-0.28,2.75-0.55   c1.07-0.32,2.07-0.88,3.15-1.12c1.27-0.29,2.57-0.29,3.42,1.02c0.77,1.18,0.72,3.17-0.31,4.26c-0.7,0.73-1.6,1.35-2.52,1.75   c-7.2,3.06-19.49-1.3-20.36-11.81C490.51,443.01,490.42,442.06,490.34,441.1z"/>
	<path d="M564.26,255c0,1.81-0.03,3.63,0.01,5.44c0.09,4.63,0.3,9.25,0.26,13.88c-0.01,1.48-0.6,2.95-0.95,4.42   c-0.21,0.85-0.87,1.25-1.62,0.96c-0.48-0.19-1.07-0.79-1.13-1.27c-0.27-2.3-0.5-4.61-0.52-6.92c-0.08-7.99-0.09-15.97-0.08-23.96   c0-1.02,0.2-2.06,0.42-3.06c0.19-0.86,0.82-1.34,1.74-1.35c0.98,0,1.47,0.61,1.61,1.46c0.31,1.95,1.41,3.35,2.94,4.48   c0.24,0.18,0.54,0.26,1.06,0.51c0.08-1.13,0.13-2.06,0.22-2.99c0.06-0.63,0.03-1.35,0.33-1.86c0.28-0.48,0.9-0.93,1.44-1.01   c0.4-0.06,1.1,0.38,1.3,0.79c0.42,0.84,0.75,1.78,0.86,2.71c0.22,1.9,0.39,3.82,0.38,5.73c-0.02,6.23-0.09,12.46-0.22,18.69   c-0.04,2.15-0.23,4.31-0.52,6.43c-0.25,1.8-1.45,2.18-2.78,0.94c-1.41-1.31-2.15-3.02-2.07-4.93c0.1-2.31,0.39-4.61,0.63-6.91   c0.14-1.35,0.32-2.7,0.55-4.03c0.6-3.45-1.21-5.9-3.16-8.3C564.72,254.9,564.49,254.95,564.26,255z"/>
	<path d="M28.88,263.13c1.38,0,2.63,0.04,3.87-0.01c1.51-0.06,3.03-0.33,4.53-0.26c2.2,0.1,3.35,1.59,3.26,3.89   c-0.1,2.25-1.17,3.29-3.52,3.25c-1.91-0.03-3.82-0.24-5.73-0.28c-1.93-0.05-3.79,0.27-5.52,1.26c-1.5,0.86-2.42,0.49-2.8-1.23   c-0.32-1.46-0.34-3-0.34-4.51c0.02-9.66,0.08-19.32,0.15-28.98c0.01-1.99,0.09-3.98,0.25-5.96c0.09-1.07,0.64-1.95,1.7-2.43   c0.92-0.41,1.8-0.43,2.24,0.58c0.56,1.3,1.26,2.66,1.33,4.03c0.23,4.7,0.25,9.4,0.27,14.11c0.01,4.07-0.13,8.14-0.12,12.21   C28.44,260.13,28.7,261.47,28.88,263.13z"/>
	<path d="M558.25,307.64c2.98-0.6,5.9-0.4,8.46-2.07c1.21-0.79,2.28-0.27,2.91,1.05c0.91,1.94,0.27,4.09-1.86,5.01   c-1.81,0.78-3.8,1.16-5.72,1.65c-1.14,0.29-2.31,0.46-3.67,0.72c0.58,1.92,1.25,3.52,2.4,4.86c1.62,1.9,3.67,2.11,5.73,0.66   c0.33-0.23,0.62-0.51,0.96-0.72c2.04-1.29,3.58-0.57,3.94,1.8c0.27,1.8-0.55,3.08-1.91,4.11c-3.91,2.94-9.14,2.3-12.23-1.51   c-1.76-2.18-2.65-4.75-3.09-7.45c-1.07-6.62-0.39-13.09,2.26-19.25c0.87-2.01,2.32-3.79,3.67-5.55c0.61-0.79,1.55-1.41,2.46-1.85   c2.05-0.99,3.66-0.12,4.01,2.16c0.13,0.85,0.04,1.75-0.09,2.61c-0.16,1.07-0.76,1.81-1.96,1.59c-1.04-0.2-1.62,0.32-2.22,1.04   C559.98,299.26,558.39,303.48,558.25,307.64z"/>
	<path d="M85.73,418.93c-0.41,0.43-0.82,0.85-1.24,1.28c-2.09,0.57-3.52-0.32-4.65-2.03c-0.74-1.11-1.5-2.27-3.07-2.77   c-0.65,0.66-1.36,1.29-1.98,2c-3.28,3.71-6.45,7.53-9.84,11.13c-2.67,2.84-5.56,5.49-8.46,8.12c-1.43,1.29-2.32,0.92-2.94-0.87   c-0.41-1.17-0.13-2.26,0.5-3.2c0.79-1.19,1.7-2.32,2.67-3.37c4.42-4.83,8.88-9.63,13.32-14.45c0.97-1.06,1.88-2.17,2.97-3.44   c-0.91-0.85-1.79-1.63-2.62-2.46c-1.09-1.08-1.6-2.37-1.31-3.92c0.41-2.17,2.28-3,4.12-1.75c0.72,0.49,1.3,1.17,1.96,1.76   c0.7,0.63,1.4,1.26,2.08,1.86c2.12-0.65,2.25-3.03,3.76-3.84c1.19,1.14,2.3,2.21,3.51,3.37c-1.17,1.28-2.34,2.56-3.64,3.98   c0.76,0.86,1.34,1.6,2,2.25c0.63,0.61,1.38,1.09,2.02,1.69C86.55,415.84,86.68,416.67,85.73,418.93z"/>
	<path d="M549.27,270.09c-0.21,1.7-0.36,3.26-0.6,4.82c-0.29,1.89-0.59,3.77-1,5.64c-0.17,0.75-0.51,1.59-1.55,1.54   c-1.1-0.06-1.89-0.75-1.99-1.75c-0.15-1.57-0.15-3.18,0.05-4.75c0.29-2.37,0.81-4.71,1.22-7.07c0.8-4.56,1.53-9.12,2.42-13.66   c0.33-1.7,0.95-3.37,1.6-4.99c0.42-1.05,1.18-1.95,2.5-1.91c1.27,0.03,2.15,0.84,2.53,1.91c0.76,2.17,1.38,4.39,1.92,6.63   c0.39,1.62,0.41,3.33,0.82,4.95c0.38,1.52,1.09,2.95,1.56,4.45c0.25,0.8,0.58,1.74,0.39,2.49c-0.4,1.54-0.22,2.98,0.04,4.49   c0.28,1.65,0.5,3.32,0.52,4.98c0.03,1.62-0.62,2.36-1.73,2.43c-1.15,0.07-1.94-0.51-2.24-2.03c-0.28-1.4-0.29-2.85-0.42-4.28   c-0.34-3.67-0.35-3.67-3.94-3.88C550.74,270.06,550.12,270.09,549.27,270.09z M552.24,257.5c-0.21-0.06-0.42-0.11-0.63-0.17   c-0.46,2.23-0.92,4.47-1.42,6.93c1.17,0.09,2.15,0.16,3.46,0.26C553.13,261.96,552.68,259.73,552.24,257.5z"/>
	<path d="M34.35,404.34c1.19,1.12,2.34,2.1,3.37,3.19c1.69,1.79,3.41,3.58,4.93,5.51c1.24,1.57,1.62,3.52,0.96,5.44   c-0.28,0.82-0.99,1.69-1.74,2.1c-1.4,0.75-2.83-0.01-3.22-1.73c-0.43-1.89-1.43-3.39-2.79-4.64c-2.22-2.05-4.55-3.97-6.84-5.96   c-0.84-0.73-1.8-1.37-2.48-2.23c-1.5-1.9-0.62-4.46,1.76-4.74c1.59-0.19,2.63-0.97,3.71-1.9c4.92-4.24,9.21-9.05,13.14-14.2   c0.77-1.01,1.59-2.02,2.56-2.82c0.62-0.51,1.56-0.86,2.37-0.88c1.54-0.05,2.42,1.12,1.85,2.55c-0.58,1.46-1.39,2.88-2.34,4.13   c-3.98,5.21-8.49,9.95-13.33,14.37C35.69,403.05,35.12,403.61,34.35,404.34z"/>
	<path d="M536.65,270.66c0.35-2.4,0.7-4.81,1.04-7.21c0.49-3.4,0.92-6.8,1.48-10.19c0.21-1.24,0.63-2.48,1.15-3.64   c0.62-1.41,1.55-1.88,2.59-1.61c1.02,0.27,1.49,1.21,1.32,2.73c-0.02,0.24-0.08,0.47-0.14,0.7c-2.04,6.69-2.29,13.68-3.52,20.51   c-0.33,1.8-0.84,3.56-1.28,5.34c-0.06,0.23-0.16,0.45-0.28,0.66c-0.76,1.32-1.45,2.83-3.26,2.8c-1.9-0.03-2.53-1.64-2.85-3.09   c-0.75-3.42-1.35-6.88-1.85-10.34c-0.77-5.3-1.57-10.58-3.46-15.63c-0.3-0.82-0.56-1.68-0.65-2.54c-0.11-1.18,0.69-2.25,1.75-2.58   c1.31-0.42,2.07,0.42,2.39,1.42c0.85,2.73,1.66,5.49,2.23,8.29c0.98,4.76,1.77,9.55,2.63,14.33   C536.18,270.62,536.42,270.64,536.65,270.66z"/>
	<path d="M541.49,360.91c1.95,0.07,3.62,0.1,5.27,0.21c1.51,0.1,3.04,0.13,4.5,0.46c1.59,0.36,2.18,1.36,2.05,2.78   c-0.15,1.58-0.72,2.34-2.33,2.55c-1.57,0.2-3.18,0.19-4.77,0.22c-2.69,0.04-5.36-0.27-7.98,0.94c-1.86,0.86-2.93-0.04-2.94-2.01   c-0.01-8.94-0.01-17.87,0.03-26.81c0.01-1.67,0.27-3.34,0.34-5.01c0.05-1.03,0.55-1.58,1.49-1.9c0.97-0.33,1.91-0.09,2.34,0.68   c0.68,1.22,1.38,2.58,1.5,3.93c0.26,2.93,0.19,5.89,0.19,8.84c-0.01,3.67-0.12,7.34-0.11,11.01   C541.08,358.05,541.32,359.31,541.49,360.91z"/>
	<path d="M339.99,46.81c-0.39,3.95-0.81,8.8-1.36,13.64c-0.15,1.33-0.61,2.65-1.06,3.92c-0.29,0.81-0.74,1.61-1.27,2.29   c-1.27,1.67-3.59,2.03-5.1,0.89c-1.31-0.99-1.65-3.19-0.42-4.76c1.31-1.66,1.87-3.5,2.07-5.51c0.71-6.94,0.94-13.87-0.17-20.8   c-0.23-1.41-0.24-2.87-0.2-4.3c0.02-0.86,0.21-1.77,0.56-2.55c0.91-2.01,3.8-2.22,4.83-0.27c0.69,1.3,1.09,2.85,1.23,4.33   C339.48,37.74,339.66,41.81,339.99,46.81z"/>
	<path d="M426.98,526.33c0-1.34,0-2.29,0-3.58c5.68,0,11.29,0,17.08,0c0-4.16,0-7.97,0-11.97c1.18,0,2.16,0,3.45,0   c0,3.8,0,7.66,0,11.81c3.02,0.27,5.79,0.11,8.54,0.14c2.77,0.03,5.54,0.01,8.43,0.01c0,1.31,0,2.3,0,3.61c-5.6,0-11.06,0-16.79,0   c0,6.34,0,12.36,0,18.56c-1.25,0-2.24,0-3.52,0c0-6.11,0-12.21,0-18.56C438.33,526.33,432.79,526.33,426.98,526.33z"/>
	<path d="M85.73,171.98c0-6.18,0-12.16,0-18.42c-2.98-0.28-5.83-0.1-8.66-0.14c-2.78-0.03-5.56-0.01-8.44-0.01c0-1.28,0-2.27,0-3.54   c5.71,0,11.27,0,17.11,0c0-4.14,0-8.02,0-12.02c1.21,0,2.15,0,3.39,0c0.19,3.85-0.02,7.74,0.13,11.85c2.83,0.38,5.6,0.14,8.35,0.18   c2.7,0.04,5.41,0.01,8.24,0.01c0,1.25,0,2.25,0,3.55c-5.48,0-10.88,0-16.56,0c0,6.33,0,12.35,0,18.53   C87.97,171.98,86.93,171.98,85.73,171.98z"/>
	<path d="M43.17,353.94c-5.95,0-11.52,0-17.19,0c0-1.25,0-2.25,0-3.51c5.69,0,11.25,0,17.09,0c0-4.12,0-8,0-12.02   c1.26,0,2.24,0,3.5,0c0,3.98,0,7.85,0,11.99c5.66,0,11.06,0,16.59,0c0,1.27,0,2.27,0,3.58c-5.46,0-10.85,0-16.52,0   c0,6.34,0,12.37,0,18.57c-1.26,0-2.24,0-3.47,0C43.17,366.45,43.17,360.41,43.17,353.94z"/>
	<path d="M115.97,502.41c-2.4-0.05-3.76-2-2.87-4.04c0.5-1.13,1.33-2.19,2.23-3.05c6.28-6.05,11.69-12.85,17.07-19.68   c0.73-0.93,1.53-1.86,2.45-2.59c1.48-1.15,2.95-1.04,4.12,0.08c1.1,1.05,1.28,2.38,0.43,3.92c-0.42,0.76-0.96,1.47-1.52,2.14   c-3.53,4.32-7.03,8.68-10.64,12.93c-2.43,2.85-4.99,5.59-7.58,8.29C118.61,501.51,117.34,502.38,115.97,502.41z"/>
	<path d="M436.83,49.75c0,1.29,0,2.22,0,3.38c-5.51,0-10.9,0-16.6,0c0,6.32,0,12.42,0,18.64c-1.23,0-2.15,0-3.35,0   c-0.32-6.07,0.05-12.17-0.22-18.56c-5.83,0-11.53,0-17.36,0c0-1.22,0-2.14,0-3.36c0.81-0.06,1.65-0.17,2.49-0.17   c4.07-0.02,8.14,0,12.21-0.01c0.86,0,1.71-0.08,2.8-0.13c0-4.09,0-7.97,0-11.96c1.16,0,2.09,0,3.27,0c0,3.9,0,7.78,0,11.99   C425.74,49.83,431.2,49.55,436.83,49.75z"/>
	<path d="M146.33,529.11c5.72,0,11.27,0,17.1,0c0-4.13,0-8.01,0-12.03c1.2,0,2.12,0,3.3,0c0.44,3.9-0.12,7.87,0.34,12.04   c5.56,0,11.04,0,16.66,0c0,1.24,0,2.22,0,3.46c-5.6,0-11.08,0-16.82,0c0,6.44,0,12.63,0,18.96c-1.19,0-2.11,0-3.39,0   c-0.16-6.17,0.02-12.36-0.11-18.89c-5.74-0.17-11.35,0.01-17.09-0.1C146.33,531.39,146.33,530.46,146.33,529.11z"/>
	<path d="M338.44,560.85c-0.09,1.91-0.08,3.83-0.3,5.73c-0.12,1.08-0.48,2.19-0.97,3.17c-0.6,1.2-1.68,1.47-3.08,1.22   c-1.36-0.25-1.52-1.23-1.56-2.31c-0.19-4.47-0.32-8.94-0.57-13.4c-0.19-3.42-0.57-6.84-0.8-10.26c-0.15-2.15-0.22-4.3-0.24-6.46   c-0.01-0.78,0.19-1.58,0.41-2.34c0.29-0.99,0.9-1.71,2.04-1.7c1.2,0.01,2.25,0.41,2.72,1.58c0.32,0.8,0.51,1.69,0.57,2.55   c0.57,7.4,1.1,14.8,1.64,22.21C338.35,560.85,338.39,560.85,338.44,560.85z"/>
	<path d="M559.21,359.26c-0.56-5.48-1.17-10.96-1.64-16.45c-0.14-1.65-0.04-3.36,0.25-4.98c0.28-1.53,1.15-2.06,2.52-2.06   c1.41,0,2.14,0.51,2.66,1.97c0.24,0.67,0.44,1.38,0.51,2.09c0.55,5.73,1.14,11.45,1.54,17.18c0.22,3.11,0.06,6.24-0.99,9.24   c-0.64,1.82-2.03,2.38-3.74,1.52c-1.02-0.51-1.5-1.29-1.44-2.51c0.09-1.99,0.02-3.99,0.02-5.99   C559,359.27,559.11,359.27,559.21,359.26z"/>
	<path d="M66.24,397.2c1.81,0.05,3.01,1.54,2.45,3.12c-0.36,1.03-0.98,2.02-1.68,2.86c-5.5,6.53-11.04,13.02-16.61,19.49   c-0.77,0.9-1.7,1.68-2.64,2.41c-0.55,0.42-1.28,0.87-1.92,0.86c-0.8-0.01-1.89-0.25-2.31-0.81c-0.4-0.53-0.38-1.72-0.06-2.4   c0.54-1.13,1.39-2.13,2.23-3.08c4.33-4.9,8.75-9.72,13.04-14.65c1.57-1.8,2.85-3.84,4.33-5.72C63.9,398.22,64.84,397.2,66.24,397.2   z"/>
	<path d="M519.26,448.79c-0.49-5.16-1.03-10.31-1.46-15.48c-0.19-2.3-0.28-4.62-0.19-6.92c0.07-1.81,1.04-2.52,2.83-2.53   c1.4-0.01,2.07,0.41,2.44,1.78c0.31,1.15,0.49,2.34,0.59,3.53c0.57,6.75,1.61,13.49,1.26,20.29c-0.1,1.97-0.55,3.94-0.98,5.87   c-0.25,1.11-0.8,2.09-2.29,1.92c-1.32-0.15-2.35-0.94-2.47-2.45c-0.15-1.98-0.04-3.98-0.04-5.98   C519.06,448.8,519.16,448.8,519.26,448.79z"/>
	<path d="M178.9,547.9c-3.12-3.29-6.22-6.55-9.33-9.82c0.81-0.87,1.54-1.65,2.32-2.49c3.17,3.34,6.27,6.61,9.33,9.83   C180.42,546.27,179.7,547.05,178.9,547.9z"/>
	<path d="M422.67,58.55c0.83-1.06,1.4-1.79,2.15-2.74c3.36,3.54,6.55,6.9,9.88,10.41c-0.9,0.85-1.61,1.53-2.42,2.29   C429,65.12,425.88,61.88,422.67,58.55z"/>
	<path d="M91.55,158.49c0.81-0.72,1.52-1.34,2.47-2.19c3.21,3.29,6.41,6.56,9.83,10.06c-0.82,0.74-1.56,1.42-2.54,2.31   C98.1,165.31,94.92,162,91.55,158.49z"/>
	<path d="M462.02,539.11c-0.83,0.95-1.5,1.72-2.25,2.57c-3.22-3.39-6.33-6.68-9.56-10.09c0.78-0.81,1.47-1.54,2.32-2.43   C455.76,532.55,458.92,535.86,462.02,539.11z"/>
	<path d="M49.04,359.26c0.78-0.94,1.42-1.71,2.17-2.62c3.35,3.5,6.52,6.81,9.81,10.25c-0.75,0.79-1.45,1.52-2.32,2.43   C55.42,365.9,52.25,362.6,49.04,359.26z"/>
	<path d="M170.63,525.92c3.05-2.79,5.9-5.4,9.01-8.25c0.73,1.14,1.31,2.04,1.96,3.05c-2.92,2.54-5.78,5.03-8.8,7.66   C172.1,527.59,171.43,526.83,170.63,525.92z"/>
	<path d="M59.31,338.93c0.71,1.15,1.23,2,1.87,3.04c-2.89,2.5-5.71,4.93-8.71,7.53c-0.72-0.89-1.35-1.67-2.09-2.59   C53.22,344.38,56.16,341.75,59.31,338.93z"/>
	<path d="M95.15,149.04c-0.85-0.93-1.52-1.67-2.29-2.51c3.03-2.62,5.9-5.09,8.97-7.74c0.81,0.87,1.53,1.65,2.3,2.48   C101.13,143.86,98.26,146.35,95.15,149.04z"/>
	<path d="M73.4,165.61c2.71-3.05,5.22-5.87,7.88-8.87c0.76,0.96,1.34,1.68,2.04,2.56c-2.22,3.08-4.76,5.86-7.69,8.45   C74.86,167.01,74.19,166.36,73.4,165.61z"/>
	<path d="M460.31,511.68c0.73,0.85,1.4,1.62,2.19,2.54c-2.96,2.54-5.84,5.02-8.94,7.68c-0.79-0.89-1.49-1.69-2.25-2.56   C454.35,516.76,457.25,514.29,460.31,511.68z"/>
	<path d="M423.75,46.33c3.09-2.69,5.91-5.13,8.73-7.58c0.85,0.79,1.57,1.47,2.48,2.31c-2.96,2.57-5.83,5.06-8.93,7.75   C425.24,47.97,424.58,47.24,423.75,46.33z"/>
	<path d="M434.12,540.92c-0.76-0.73-1.49-1.43-2.36-2.27c1.53-1.66,2.81-3.03,4.08-4.41c1.22-1.34,2.43-2.7,3.69-4.11   c1.01,0.7,1.89,1.31,2.95,2.05C439.65,535.14,436.99,537.91,434.12,540.92z"/>
	<path d="M38.53,357.63c0.96,0.88,1.65,1.51,2.49,2.28c-2.65,2.88-5.14,5.6-7.75,8.43c-0.95-0.79-1.66-1.38-2.56-2.12   C33.32,363.36,35.86,360.56,38.53,357.63z"/>
	<path d="M153.57,547.22c-0.98-0.88-1.67-1.51-2.5-2.26c2.7-2.96,5.21-5.71,7.82-8.57c0.83,0.73,1.58,1.39,2.52,2.22   c-1.33,1.46-2.59,2.85-3.85,4.23C156.29,544.24,155.01,545.64,153.57,547.22z"/>
	<path d="M406.81,67.58c-2.42-1.78-2.47-1.98-0.87-3.83c1.92-2.23,3.87-4.43,5.99-6.85c0.9,0.74,1.72,1.41,2.67,2.19   C411.9,62.03,409.34,64.82,406.81,67.58z"/>
	<path d="M442.49,519.63c-0.84,0.72-1.55,1.33-2.47,2.12c-2.28-2.65-4.48-5.21-6.66-7.74c1.9-2.08,2.62-2.14,4.18-0.4   c1.39,1.55,2.71,3.16,4.04,4.75C441.84,518.66,442.05,519,442.49,519.63z"/>
	<path d="M412.34,48.68c-2.17-2.58-4.25-5.05-6.51-7.73c0.83-0.75,1.56-1.41,2.28-2.06c2.08,1.63,5.61,5.94,6.5,7.93   C413.91,47.39,413.19,47.98,412.34,48.68z"/>
	<path d="M161.76,526.04c-0.91,0.83-1.55,1.42-2.43,2.23c-2.28-2.67-4.51-5.29-6.73-7.89c1.93-2.18,2.62-2.2,4.24-0.27   C158.46,522.05,160.07,524,161.76,526.04z"/>
	<path d="M74.95,141.09c0.87-0.75,1.63-1.4,2.57-2.2c1.04,1.31,1.95,2.48,2.9,3.63c0.92,1.11,1.97,2.12,2.78,3.29   c0.86,1.23,0.43,1.84-1.91,2.88C79.24,146.25,77.16,143.75,74.95,141.09z"/>
	<path d="M32.22,341.68c1.02-0.89,1.72-1.5,2.53-2.21c2.26,2.61,4.38,5.06,6.65,7.68c-0.82,0.75-1.55,1.42-2.49,2.27   C36.67,346.82,34.52,344.34,32.22,341.68z"/>
	<path d="M306.24,84.45c29.74,0,59.47,0.02,89.21-0.04c1.92,0,3.24,0.51,4.53,1.96c18.82,21.25,37.68,42.45,56.55,63.65   c14.72,16.54,29.46,33.07,44.2,49.6c1.7,1.91,3.48,3.75,5.19,5.65c1.67,1.85,2.5,3.98,2.48,6.55c-0.07,10.47-0.04,20.95-0.04,31.42   c0.01,18.55,0.02,37.1,0.05,55.65c0.02,16.07,0.06,32.14,0.12,48.22c0.01,3.52,0.19,7.03,0.28,10.55c0.03,1.12-0.04,2.24,0.01,3.36   c0.17,4.02-1.25,7.33-3.76,10.53c-5.51,7.05-10.73,14.33-15.99,21.57c-26.35,36.29-52.68,72.59-78.97,108.92   c-1.25,1.73-2.55,2.4-4.7,2.39c-44.92-0.07-89.85-0.06-134.77-0.04c-9.91,0-19.82,0.01-29.73,0.12c-3.51,0.04-7.02,0.38-10.53,0.58   c-0.4,0.02-0.93,0.19-1.17,0c-1.5-1.17-3.22-0.67-4.85-0.69c-5.44-0.06-10.87-0.07-16.31,0.01c-1.65,0.02-2.96-0.48-4.07-1.62   c-0.72-0.75-1.46-1.48-2.15-2.26c-20.35-22.87-40.68-45.78-61.06-68.62c-13.46-15.09-27.01-30.11-40.53-45.16   c-1.44-1.61-2.9-3.2-4.32-4.82c-1.49-1.69-2.08-3.64-2.06-5.94c0.15-23.75,0.2-47.5,0.34-71.24c0.12-19.75,0.35-39.5,0.5-59.24   c0.09-11.67,0.17-23.35,0.12-35.02c-0.01-2.54,0.88-4.44,2.56-6.19c20.68-21.59,41.35-43.19,62-64.81   c13.69-14.34,27.35-28.71,41.02-43.07c2.76-2.89,5.62-5.69,8.21-8.73c2.34-2.75,5.16-3.75,8.67-3.58c4.55,0.22,9.1,0.34,13.66,0.35   C256.04,84.46,281.14,84.45,306.24,84.45z M501.76,284.47c0-1.2,0-2.06,0-2.93c0-13.03-0.04-26.07,0.01-39.1   c0.04-9.27,0.18-18.54,0.31-27.82c0.03-2.41-0.46-4.58-2.19-6.38c-1.5-1.55-2.95-3.16-4.38-4.77   c-27.63-31.06-55.26-62.12-82.87-93.2c-4.78-5.38-9.58-10.74-14.21-16.25c-2.08-2.47-4.38-3.73-7.66-3.44   c-3.1,0.28-6.23,0.28-9.34,0.29c-37.65,0.02-75.3,0.03-112.95,0c-16.23-0.01-32.45-0.07-48.67-0.28c-3.49-0.04-6.26,0.86-8.39,3.61   c-0.2,0.25-0.43,0.48-0.64,0.71c-7.54,8.05-15.01,16.17-22.63,24.15c-19.48,20.42-39.01,40.79-58.53,61.17   c-7.57,7.91-15.08,15.89-22.76,23.69c-5.61,5.69-5.79,4.81-5.63,13.55c0.08,4.39,0.31,8.78,0.35,13.18   c0.03,2.63-0.24,5.27-0.25,7.91c-0.06,15.11-0.09,30.22-0.12,45.34c0,0.53,0.11,1.07,0.18,1.72c14.06,0.15,28,0.3,42.1,0.45   c0,2.83,0,5.38,0,7.93c0,2.56,0,5.12,0,7.68c0,2.56,0,5.12,0,7.68c0,2.56,0,5.12,0,7.68c0,2.56-0.01,5.12,0,7.68   c0.01,2.52-0.07,5.05,0.07,7.81c11.39,0,22.46,0,33.73,0c0.51,16.04,0.04,31.84,0.23,47.91c10.91,0,21.58,0,32.53,0   c0,17.1,0,33.92,0,50.97c6.67,0,13.04-0.03,19.42,0.01c6.43,0.04,12.86-0.16,19.41,0.13c0,1.17,0,2.05,0,2.92   c0,4.32,0.06,8.64-0.03,12.95c-0.03,1.42,0.49,2.16,1.73,2.75c3.5,1.68,7.15,2.29,10.96,1.74c2.15-0.31,4.23-0.95,5.79-2.62   c3.12-3.32,7.01-4.2,11.38-3.68c4.45,0.53,8.48,2.2,12.32,4.41c0.65,0.37,1.33,0.71,2.19,1.17c0-64.9,0-129.45,0-194.29   c-18.2,0-36.25,0-54.29,0c-18.04,0-36.07,0-54.31,0c0-2.96,0-5.56,0-8.42c36.28,0,72.36,0,108.75,0c0-14.61,0-28.96,0-43.22   c2.44-0.64,5.88-0.66,8.55-0.05c0,14.29,0,28.64,0,43.24c39.88,0,79.49,0,119.18,0c0.69,2.89,0.32,5.55,0.29,8.46   c-5.92,0-11.58,0-17.24,0c-5.68,0-11.35,0-17.03,0c-5.68,0-11.35,0-17.03,0c-5.68,0-11.35,0-17.03,0c-5.68,0-11.35,0-17.03,0   c-5.68,0-11.35-0.02-17.03,0.01c-5.64,0.03-11.29-0.14-16.98,0.11c0,63.21,0,126.17,0,189.43c0.89-0.22,1.56-0.35,2.22-0.56   c1.9-0.61,3.75-1.42,5.68-1.84c6.07-1.31,11.9-1.32,16.83,3.4c2.03,1.94,4.68,2,7.24,1.39c1.69-0.4,3.32-1.13,4.9-1.88   c1.58-0.75,3-1.86,4.61-2.55c1.45-0.62,1.78-1.58,1.71-3c-0.16-3.43-0.24-6.87-0.33-10.31c-0.02-0.85,0.07-1.69,0.12-2.69   c2.89,0,5.52,0,8.15,0c2.64,0,5.28,0,7.91,0c2.72,0,5.44,0,8.15,0c2.64,0,5.28,0.02,7.91-0.01c2.6-0.03,5.2,0.13,8.01-0.13   c0-16.57,0-32.84,0-49.38c11.94,0,23.65,0,35.63,0c0-15.57,0-30.88,0-46.46c11.41,0,22.56,0,34.02,0c0-8.15-0.02-16.04,0.01-23.93   c0.02-7.96-0.11-15.93,0.09-24.05C470.56,284.47,485.97,284.47,501.76,284.47z M233.37,497.39c3.6,0.52,131.79,0.34,133.54-0.18   c-0.13-17.36-0.27-34.75-0.4-52.36c13.64,0,26.96,0,40.59,0c0-4.51,0-8.81,0-13.1c0-4.32,0-8.64,0-12.95c0-4.4-0.01-8.8,0-13.19   c0.01-4.28-0.02-8.57,0.02-12.94c11.58,0,22.8,0,34.29,0c0-15.59,0-31.06,0-46.78c11.42,0,22.57,0,33.94,0   c0.26-15.15,0.11-30.06,0.57-45.1c8.73,0,17.16,0,25.81,0c0.04-4.02,0.06-7.87-0.01-11.75c-14.31,0-28.26,0-42.5,0   c0,2.76,0,5.38,0,8c0,2.64,0,5.28,0,7.92c0,2.64,0,5.28,0,7.92c0,2.72,0,5.44,0,8.16c0,2.64,0.01,5.28,0,7.92   c-0.02,2.6,0.09,5.21-0.1,8.15c-11.43,0.05-22.57,0.1-33.86,0.15c0,2.9,0,5.45,0,8c0,2.56,0,5.12,0,7.68s0,5.12,0,7.68   c0,2.56,0,5.12,0,7.68c0,2.56,0.03,5.12-0.01,7.68c-0.04,2.51,0.2,5.05-0.19,7.68c-2.57,0-4.88,0-7.19,0c-2.32,0-4.64,0-6.95,0   c-2.4,0-4.8,0-7.19,0c-2.32,0-4.64-0.02-6.95,0.01c-2.28,0.03-4.57-0.12-7.07,0.12c0,16.48,0,32.69,0,49.03   c-2.23,0.09-4.21,0.25-6.2,0.25c-9.91,0.02-19.82,0-29.73,0.01c-1.32,0-2.64,0.11-4.26,0.19c0.5,18.58,1,36.92,1.5,55.38   c-35.72,1.09-71.2,2.17-106.86,3.26c0-3.38,0-6.41,0-9.44c0-3.12,0-6.24,0-9.36c0-3.04,0-6.08,0-9.12c0-3.12,0-6.24,0-9.36   c0-3.04,0.01-6.08,0-9.12c-0.01-3.08-0.04-6.16-0.06-9.47c-12.94,0-25.53,0-38.21,0c-0.06-1.03-0.12-1.81-0.14-2.6   c-0.09-5.04-0.22-10.07-0.23-15.11c-0.03-10.31,0.01-20.63,0.01-30.94c0-0.68-0.12-1.36-0.21-2.26c-10.78,0-21.38,0-32.23,0   c0-16.03,0-31.83,0-47.92c-5.91,0-11.56,0.02-17.21-0.01c-5.64-0.03-11.28,0.13-17.11-0.11c0-7.95,0.01-15.61,0-23.28   c-0.02-7.64,0.07-15.28-0.06-23.18c-12.66-0.13-25.01-0.26-37.31-0.39c-0.48,3.49-0.36,11.48,0.17,13.18   c8.11-0.12,16.24-0.24,24.58-0.37c0.1,2.24,0.27,4.29,0.28,6.34c0.04,12.39,0.04,24.79,0.07,37.18c0,0.92,0.07,1.84,0.12,2.89   c3.1,0,5.89,0,8.68,0c2.72,0,5.44,0,8.15,0c2.8,0,5.6-0.02,8.39,0c2.76,0.02,5.53-0.1,8.38,0.08c0.11,3.02,0.31,5.73,0.3,8.44   c-0.07,11.67-0.21,23.35-0.31,35.02c-0.01,0.93,0.07,1.85,0.12,3c11.51,0,22.74,0,34.21,0c0.55,17.55,0.03,34.87,0.26,52.51   c3.36,0,6.53,0,9.71,0c3.12,0,6.24,0,9.35,0c3.2,0,6.4-0.01,9.59,0c3.16,0.02,6.33-0.08,9.57,0.07   C233.85,465.04,233,481.24,233.37,497.39z M411.75,396.97c0,3.23,0,6.09,0,8.95c0,2.96,0,5.92,0,8.87c0,2.88,0,5.76,0,8.63   c0,2.88,0,5.76,0,8.63c0,2.96,0.02,5.92-0.01,8.87c-0.03,2.83,0.13,5.68-0.13,8.74c-13.62,0-26.92,0-40.41,0   c0.08,16.12-0.14,31.97,0.59,47.97c1.06,0,1.85,0,2.65,0c8.71,0,17.43-0.18,26.13,0.09c3.42,0.11,5.53-0.97,7.48-3.74   c6.2-8.82,12.65-17.47,19-26.19c0.07-0.09,0.01-0.28,0.01-0.56c-0.75-0.1-1.5-0.2-2.32-0.31c0-4.98,0-9.89,0-14.79   c1.09,0,2,0,3.19,0c0.05,4.49,0.09,8.82,0.14,13.15c0.88-0.28,1.34-0.67,1.7-1.15c0.72-0.96,1.37-1.97,2.07-2.94   c22.94-31.73,45.88-63.47,68.86-95.17c0.99-1.37,1.49-2.71,1.4-4.41c-0.16-3.19-0.19-6.39-0.21-9.59   c-0.06-14.71-0.09-29.42-0.13-44.12c0-0.69-0.1-1.39-0.17-2.38c-7.12,0-14.09,0-21.35,0c0,1.06,0.01,2.16,0,3.27   c-0.09,12.63-0.18,25.26-0.29,37.89c-0.01,1.25-0.19,2.49-0.3,3.91c-5.81,0-11.39-0.03-16.97,0.01   c-5.55,0.04-11.11-0.17-16.88,0.14c0,5.34,0,10.44,0,15.55c0,5.2,0.02,10.39-0.01,15.59c-0.03,5.08,0.13,10.16-0.12,15.51   C434.31,397.24,423.23,397.11,411.75,396.97z M224.95,484.45c-0.08-3.64-0.1-7.18,0-10.75c1.4-0.12,2.47-0.21,3.57-0.3   c0-6.8,0-13.39,0-20.28c-2.69,0-5.23,0-7.76,0c-2.56,0-5.12,0-7.67,0c-2.56,0-5.12,0-7.67,0s-5.12,0.04-7.67-0.01   c-2.51-0.05-5.05,0.23-7.71-0.22c0-3.64,0-7.06,0-10.49c0-3.52,0-7.04,0-10.55c0-3.44,0-6.88,0-10.31c0-3.52,0.01-7.04,0-10.55   c-0.01-3.4-0.03-6.81-0.05-10.46c-11.63,0-22.93,0-34.4,0c0.12-15.56,0.25-30.86,0.37-46.45c-11.52,0-22.74,0-34.13,0   c0-5.39,0-10.5,0-15.6c0-5.12,0-10.23,0-15.35c0-5.08,0.01-10.16-0.01-15.55c-7.1,0.17-13.83,0.34-20.58,0.51   c-0.04,0.78-0.09,1.26-0.1,1.73c-0.14,11.51-0.28,23.02-0.42,34.53c-0.12,9.75-0.25,19.5-0.41,29.25   c-0.03,2.07,0.26,3.95,1.75,5.54c4.32,4.6,8.59,9.25,12.9,13.87c0.4,0.43,0.92,0.75,1.76,1.42c0-5.06,0-9.65,0-14.3   c1.24,0,2.22,0,3.23,0c0,5.17,0,10.17,0,15.16c-0.84,0.15-1.51,0.27-2.59,0.46c0.92,1.18,1.59,2.14,2.36,3   c24.14,26.89,48.3,53.76,72.44,80.64c5.02,5.59,10,11.21,15.03,16.8c0.51,0.57,1.19,1.34,1.82,1.37c2.92,0.15,5.85,0.06,9.04,0.06   c0-3.17,0-6.01,0-8.92c1.33,0,2.39,0,3.69,0c0,3.03,0,5.87,0,8.83c2.42,0.1,4.61,0.34,6.8-0.14c0-4.28,0-8.4,0-12.62   C227.31,484.66,226.23,484.56,224.95,484.45z M249.13,468.55c-0.48,3.34-0.35,10.43,0.23,12.16c0.95-0.63,1.9-1.2,2.78-1.86   c1.34-1.01,2.66-2.05,3.95-3.12c3.97-3.26,8.59-4.02,13.53-3.52c1.81,0.18,3.38,0.87,4.46,2.46c1.38,2.05,3.38,3.39,5.53,4.48   c3.81,1.94,7.91,2.98,12.11,3.62c0.36,0.05,0.74-0.05,1.2-0.09c1.09-5,0.29-9.88,0.39-15.09c-6.18,1.93-11.13-0.34-15.96-3.26   c-1.43-0.87-2.91-1.68-4.43-2.38c-5.23-2.41-10.22-2.09-14.87,1.5C255.28,465.59,252.62,467.92,249.13,468.55z M301.93,459.87   c0.34,0.14,0.42,0.21,0.48,0.19c0.68-0.21,1.37-0.43,2.05-0.65c4.37-1.46,8.84-2.13,13.44-1.66c2.99,0.31,5.88,1.05,8.02,3.31   c2.73,2.88,6.04,3.61,9.62,2.47c3.17-1.01,6.2-2.49,9.24-3.87c0.41-0.19,0.77-0.99,0.77-1.5c0-3.27-0.1-6.54-0.2-9.81   c-0.02-0.59-0.2-1.18-0.35-2.02c-1.09,0.5-1.94,0.9-2.8,1.27c-2.41,1.05-4.75,2.33-7.24,3.09c-3.8,1.16-7.42,0.85-10.29-2.41   c-1.32-1.49-3.08-2.22-5.01-2.61c-6.41-1.28-12.02,1.31-17.72,3.38C301.93,452.84,301.93,456.35,301.93,459.87z M302.01,475.43   c0.79-0.29,1.35-0.54,1.94-0.71c2.67-0.78,5.31-1.77,8.04-2.26c5.64-1.01,10.99-0.51,15.35,3.87c1.11,1.11,2.54,1.57,4.13,1.65   c2.19,0.11,4.32-0.13,6.32-1.02c2.68-1.2,5.34-2.47,8.1-3.75c0.09-3.77-0.03-7.45-0.26-11.35c-0.96,0.37-1.55,0.6-2.13,0.83   c-2.45,0.96-4.83,2.13-7.35,2.82c-4.14,1.13-8.05,0.84-11.18-2.71c-1.35-1.54-3.27-2.26-5.25-2.7c-6.23-1.39-11.98,0.3-17.7,2.65   C302.01,466.98,302.01,471.08,302.01,475.43z M248.96,466.41c1.95-1.08,3.54-1.95,5.12-2.83c2.44-1.36,4.8-2.86,7.32-4.05   c3.9-1.84,7.9-1.75,11.8,0.09c1.8,0.85,3.46,1.97,5.24,2.86c2.2,1.1,4.39,2.29,6.71,3.08c2.67,0.91,5.45,0.95,8.22-0.31   c0-3.2,0.05-6.31-0.04-9.41c-0.02-0.62-0.44-1.38-0.92-1.8c-4.4-3.79-9.41-6.35-15.29-6.63c-3.27-0.16-6.36,0.43-8.26,3.7   c-1.04,1.79-2.94,2.38-4.85,2.74c-4.67,0.89-9.2,0.42-13.58-1.49c-0.39-0.17-0.84-0.22-1.46-0.36   C248.96,456.74,248.96,461.28,248.96,466.41z M302.09,477.99c-0.49,4.88-0.45,5.54,0.47,7.5c14.44-0.45,28.94-0.89,43.54-1.35   c0-2.93,0-5.6,0-8.6c-1.36,0.6-2.48,1.16-3.64,1.61c-2.52,0.98-5,2.15-7.61,2.79c-3.52,0.87-6.81,0.19-9.47-2.57   c-2.17-2.25-4.96-3.17-8-3.29C311.86,473.86,306.89,475.73,302.09,477.99z M291.67,485.81c0.02-0.18,0.04-0.36,0.06-0.55   c-0.81-0.22-1.62-0.42-2.43-0.65c-2.3-0.67-4.62-1.25-6.87-2.04c-3.26-1.15-6.4-2.65-8.63-5.38c-2.32-2.83-5.28-3.38-8.6-2.98   c-3.66,0.44-6.85,1.91-9.63,4.4c-2,1.8-4.19,3.38-6.51,5.22c0,0.74,0,1.88,0,3.28C263.43,486.66,277.55,486.23,291.67,485.81z"/>
	<path d="M296.41,180.95c-4.29-0.36-8.27-0.62-12.23-1.04c-5.73-0.6-11.37-1.66-16.8-3.69c-5.17-1.93-9.35-5.01-12.49-9.64   c-2.49-3.68-4.58-7.48-5.68-11.8c-1-3.95-2.05-7.88-3.07-11.82c-0.34-1.31-0.66-2.63-1-3.95c-0.97-3.76-2.99-6.66-6.63-8.3   c-1.16-0.52-2.3-1.12-3.42-1.73c-3-1.6-6.18-1.98-9.53-1.63c-2.05,0.22-4.13,0.22-6.09,0.31c-1.42-1.62-1.55-2.97-0.28-4.61   c1.05-1.34,2.03-2.52,3.63-3.31c1.22-0.6,2.2-1.82,3.09-2.92c1.71-2.11,3.41-4.25,4.88-6.52c2.81-4.34,6.9-5.53,11.77-5.44   c5.58,0.11,8.85,3.57,11.65,7.7c1.02,1.5,1.71,3.26,2.36,4.97c1.94,5.11,5.59,8.44,10.52,10.54c5.11,2.18,10.48,3.34,15.91,4.36   c5.88,1.11,11.77,2.19,17.63,3.41c2.78,0.58,5.54,0.63,8.34,0.34c6.04-0.63,12.07-1.25,18.11-1.84c10.81-1.07,21.65-2.06,32.09-5.3   c3.79-1.17,7.49-2.76,11.07-4.5c4.25-2.06,7.6-5.23,10.03-9.36c1.01-1.71,2.26-3.29,3.48-4.86c0.51-0.65,1.22-1.15,2.18-2.02   c0.41,3.73,0.73,6.96,1.13,10.18c0.24,1.9,0.57,3.79,0.91,5.67c0.77,4.2,2.62,7.88,5.59,10.94c3.28,3.39,6.65,6.68,9.96,10.04   c0.64,0.65,1.17,1.41,1.74,2.13c-0.07,0.17-0.15,0.33-0.22,0.5c-1.47-0.08-2.94-0.07-4.4-0.25c-4.68-0.56-9.35-1.15-14.02-1.81   c-8.55-1.21-16.76-0.09-24.51,3.7c-5.38,2.63-10.71,5.38-15.83,8.48c-3.53,2.14-6.91,4.67-9.9,7.52   c-6.24,5.94-13.42,9.97-21.74,12.07c-1.07,0.27-2.11,0.68-3.27,1.07c0.21,3.63-1.77,6.08-4.24,8.26c-0.36,0.32-0.69,0.67-1.06,0.97   c-2.45,1.98-3.16,4.48-2.34,7.5c0.27,0.98,0.31,2.01,0.45,3c-1.82,0.44-2.15,0.33-2.41-0.93c-0.15-0.7-0.1-1.43-0.18-2.15   c-0.09-0.77-0.23-1.53-0.37-2.47c-1.17,0.48-2.1,0.85-3.01,1.22c-1.11-0.87-1.01-1.63-0.02-2.37c0.13-0.1,0.26-0.2,0.41-0.24   c3.95-1.22,5.76-4.86,8.44-7.51c1.18-1.17,1.83-2.74,1.64-4.76c-3.26,0.54-6.37,1.05-9.79,1.61c0.08,5.57-3.87,9.51-6.03,14.56   c-0.79-0.68-1.41-1.23-2.22-1.93c-1.52,0.32-3.29,0.69-5.15,1.08c-0.22-0.67-0.39-1.17-0.59-1.77c0.33-0.16,0.59-0.33,0.87-0.42   c1.81-0.59,3.76-0.93,5.42-1.8C294.84,188.49,296.44,185.26,296.41,180.95z M340.71,136.42c-0.26,0.82-0.5,1.58-0.75,2.34   c-2.03,6.01-4.52,11.79-8.58,16.76c-4.94,6.04-11.3,9.54-19.02,10.52c-7.18,0.91-14.36,0.59-21.52-0.21   c-4.09-0.46-8.02-1.39-11.22-4.29c-4.92-4.47-8.55-9.64-9.66-16.39c-0.57-3.46-1.46-6.87-2.29-10.28   c-0.64-2.62-2.09-4.52-4.76-5.54c-3.27-1.25-5.54-3.72-7.22-6.73c-1.01-1.81-1.89-3.7-2.93-5.5c-1.08-1.86-2.2-3.71-3.48-5.43   c-3.05-4.09-11.66-5.01-15.21-0.06c-1.58,2.21-3.2,4.4-4.94,6.48c-1.32,1.58-2.85,2.99-4.29,4.47c-0.31,0.32-0.66,0.59-1.4,1.25   c1.27,0,2.03,0.03,2.79,0c2.93-0.12,5.73,0.5,8.4,1.64c1.91,0.82,3.77,1.75,5.63,2.67c5.13,2.54,7.9,6.66,8.75,12.34   c1.29,8.62,3.99,16.74,8.83,24.11c2.04,3.11,4.49,5.61,7.82,7.19c1.94,0.92,3.94,1.8,5.99,2.41c11.03,3.32,22.24,4.18,33.65,2.32   c11.41-1.86,21.67-6.01,29.89-14.44c0.72-0.74,1.52-1.42,2.34-2.06c1.95-1.53,3.83-3.18,5.92-4.48c6.73-4.17,13.71-7.89,21.14-10.7   c3.86-1.46,3.96-1.46,4.07-5.6c0.08-3.13-0.37-6.19-2.47-8.7c-4.28,1.2-8.39,2.51-12.58,3.48   C349.41,134.94,345.15,135.59,340.71,136.42z M269.26,132.51c1.14,5.52,2.16,10.68,3.95,15.66c1.46,4.06,3.79,7.49,6.79,10.6   c3.15,3.26,6.84,4.77,11.3,4.91c4.07,0.13,8.13,0.52,12.2,0.72c10.18,0.5,19.13-2.25,26.07-10.1c4.17-4.72,6.67-10.29,8.14-16.36   c0.08-0.34,0.01-0.72,0.01-1.08c-1.2,0-2.23,0.02-3.26,0c-3.13-0.07-5.55,1.21-7.34,3.76c-0.78,1.11-1.63,2.18-2.39,3.3   c-2.66,3.96-6.08,7.18-9.7,10.23c-2.99,2.51-6.45,3.81-10.28,4.11c-1.91,0.15-3.83,0.14-5.75,0.08c-5.18-0.16-9.06-2.52-11.25-7.23   c-1.31-2.81-2.29-5.78-3.28-8.72c-0.71-2.1-1.21-4.28-1.76-6.29C278.2,134.89,273.9,133.75,269.26,132.51z M371.64,142.49   c2.9-0.18,5.45-0.58,7.97-0.45c4.61,0.24,9.2,0.78,13.8,1.21c0.96,0.09,1.92,0.21,2.87,0.31c-3.39-3.92-6.88-7.4-9.35-11.74   c-2.51-4.43-3.4-9.28-3.82-14.37c-3.63,5.09-8.27,8.72-13.89,11.34C371.8,133.13,372.88,137.52,371.64,142.49z M285.2,136.55   c1.27,4.74,2.08,9.39,4.4,13.56c0.58,1.04,1.33,1.99,2.1,2.9c1.52,1.8,3.53,2.81,5.85,2.88c2.86,0.08,5.74-0.01,8.6-0.19   c2.27-0.15,4.33-1.06,6.23-2.31c5.09-3.34,8.51-8.22,12.04-13.05c-0.58,0.09-1.05,0.33-1.5,0.59c-1.67,0.93-3.26,2.1-5.03,2.76   c-4.26,1.59-8.32,3.6-12.47,5.43c-6.41,2.83-10.83,1.16-14.2-4.99c-1.07-1.96-2.05-3.97-3.04-5.97   C287.64,137.07,286.89,136.37,285.2,136.55z M321.85,138.82c-0.06-0.25-0.12-0.5-0.18-0.76c-2.59,0.28-5.22,0.37-7.76,0.88   c-6.05,1.23-12.01,1.42-17.9-0.78c-0.52-0.19-1.07-0.33-1.62-0.43c-1.15-0.21-2.31-0.38-3.8-0.62c1.16,3.17,2.2,5.99,4.12,8.38   c1.69,2.1,3.88,2.99,6.56,2.52c0.94-0.16,1.88-0.37,2.79-0.66C310.4,145.36,315.94,141.72,321.85,138.82z"/>
	<path d="M245.8,191.21c2.29-0.8,4.11-0.38,5.54,1.13c2.38,2.53,5.55,3.66,8.75,5.36c0.16-0.93,0.27-1.69,0.42-2.44   c0.25-1.33,0.45-2.68,0.8-3.98c0.26-0.97,0.88-1.71,2.02-1.75c1.26-0.04,1.91,0.78,2.23,1.82c0.32,1.06,0.45,2.18,0.66,3.28   c0.2,1.08,0.4,2.16,0.63,3.43c5.02-1.52,8-5.84,12.46-7.99c1.77,0.64,2.54,2.07,2.71,3.81c0.14,1.42,0.01,2.87,0.03,4.31   c0.05,3.19,0.13,6.38,0.16,9.57c0.07,6.55,0.15,13.1,0.15,19.65c0,3.03-0.15,6.07-0.26,9.1c-0.08,2.08-2.92,3.71-4.7,2.68   c-0.37-0.21-0.69-0.7-0.79-1.13c-0.21-0.84-0.34-1.72-0.36-2.59c-0.2-9.18-0.37-18.37-0.54-27.55c-0.04-1.98-0.01-3.96-0.01-6.37   c-2.57,1.06-4.79,1.84-6.88,2.89c-2.24,1.12-2.61,3.26-2.48,5.54c0.23,3.91,0.62,7.81,0.64,11.72c0.03,4.7-0.16,9.42-0.44,14.11   c-0.12,2.11-1.08,2.72-3.13,2.75c-0.91,0.02-1.61-0.27-1.84-1.17c-0.29-1.15-0.63-2.33-0.65-3.5c-0.16-8.07-0.3-16.14-0.32-24.2   c0-1.62-0.5-2.71-1.73-3.67c-2.33-1.83-4.89-3.23-7.83-4.56c-0.07,0.89-0.14,1.48-0.15,2.08c-0.1,7.35-0.23,14.7-0.28,22.05   c-0.02,2.63,0.19,5.27,0.19,7.9c0,1.11-0.14,2.24-0.41,3.31c-0.46,1.86-1.45,2.65-2.94,2.59c-1.32-0.05-2.29-0.89-2.67-2.64   c-0.3-1.4-0.5-2.85-0.48-4.27c0.24-11.82,0.51-23.64,0.84-35.46C245.22,195.06,245.59,193.1,245.8,191.21z"/>
	<path d="M416.17,217.57c-0.35,2.6-0.54,5.66-1.21,8.59c-2.19,9.52-8.19,14.74-17.92,15.48c-2.83,0.22-5.79,0.04-8.56-0.56   c-6.01-1.29-10.2-5.09-12.89-10.55c-5.1-10.37-2.7-24.53,5.46-32.73c5.26-5.28,11.51-6.88,18.69-5.22   c0.54,0.13,1.09,0.28,1.62,0.45c7.95,2.57,12.89,7.75,13.98,16.22C415.67,211.87,415.86,214.5,416.17,217.57z M380.81,218.94   c-0.08,2.84,0.27,5.63,1.57,8.15c2.3,4.47,5.98,7.11,11.1,6.97c5.26-0.14,9.83-2.05,11.9-7.29c2.63-6.64,2.49-13.44-0.16-20.07   c-0.59-1.48-1.73-2.96-3.01-3.9c-5.77-4.26-13.95-2.63-17.78,3.42C381.98,210.09,380.9,214.39,380.81,218.94z"/>
	<path d="M359.73,199.63c0-1.6-0.04-2.76,0.01-3.93c0.09-2.34,0.47-4.63,1.72-6.65c1.27-2.06,3.44-2.35,5.01-0.57   c0.55,0.63,0.76,1.73,0.8,2.63c0.22,5.91,0.47,11.82,0.47,17.73c0,9.59-0.19,19.18-0.31,28.77c-0.01,0.47-0.07,0.95-0.1,1.37   c-2.79,1.72-5.69,1.1-7.26-1.45c-0.32-0.53-0.71-1.06-1.18-1.45c-1.48-1.22-2.17-2.83-1.98-4.66c0.24-2.29,0.71-4.56,1.16-6.83   c0.58-2.89,1.28-5.76,1.85-8.66c0.17-0.85,0.14-1.75,0.13-2.63c-0.01-1.66-0.49-3.09-1.9-4.18c-2.71-2.1-5.28-4.39-8.05-6.41   c-1.37-1-3.05-1.58-5-2.55c-0.05,1.41-0.16,2.33-0.1,3.25c0.33,5.26,0.8,10.52,1.04,15.78c0.2,4.47,0.24,8.94,0.19,13.41   c-0.02,1.49-0.43,3-0.88,4.44c-0.27,0.88-0.85,1.72-1.48,2.41c-1.28,1.41-4.29,1.23-4.8-1.11c-0.37-1.71-0.8-3.44-0.87-5.17   c-0.16-4.15-0.13-8.31-0.18-12.46c-0.1-8.47-0.25-16.94-0.27-25.41c-0.01-2.06,0.35-4.13,0.59-6.19c0.13-1.15,0.46-2.19,1.89-2.39   c1.54-0.22,3.05-0.41,4.15,1.05c0.14,0.19,0.3,0.39,0.38,0.61c0.94,2.6,3.07,3.95,5.33,5.24c2.28,1.3,4.46,2.8,6.69,4.2   C357.65,198.35,358.51,198.88,359.73,199.63z"/>
	<path d="M320.53,323.13c2.31-0.46,4.31,0.1,6.21,0.92c1.83,0.79,3.55,1.82,5.35,2.69c1.42,0.68,2.88,1.27,4.52,1.99   c0.25-0.98,0.43-1.65,0.59-2.34c0.18-0.78,0.29-1.58,0.51-2.34c0.48-1.6,1.2-2.24,2.41-2.27c1.19-0.03,2.14,0.61,2.61,2.07   c0.48,1.5,0.75,3.08,1.19,4.91c0.95-0.32,1.87-0.51,2.69-0.92c3.29-1.63,6.56-3.29,9.8-5.02c0.98-0.52,1.79-0.72,2.88-0.22   c1.11,0.51,1.52,1.18,1.55,2.37c0.22,8.71,0.56,17.41,0.71,26.11c0.06,3.18-0.29,6.37-0.45,9.66c-0.77,0.28-1.41,0.59-2.1,0.76   c-2.74,0.69-3.52,0.2-3.66-2.55c-0.34-6.7-0.58-13.41-0.88-20.11c-0.1-2.3-0.28-4.6-0.44-7.19c-3.14,0.87-6.03,1.6-8.69,3.08   c-1.09,0.61-1.58,1.4-1.53,2.7c0.19,4.23,0.29,8.46,0.4,12.7c0.04,1.68-0.12,3.37,0.02,5.03c0.19,2.16-0.93,3.64-2.26,5.04   c-1.45,1.52-3.09,1.25-3.58-0.74c-0.59-2.38-1.05-4.85-1.14-7.3c-0.16-4.55-0.08-9.11,0.07-13.66c0.06-1.72-0.59-2.67-2.09-3.3   c-2.93-1.23-5.83-2.51-9.11-3.92c-0.07,1.38-0.16,2.38-0.15,3.38c0.03,4.87,0.16,9.75,0.12,14.62c-0.02,3.03-0.24,6.07-0.45,9.09   c-0.15,2.2-1.54,3.33-3.64,3.13c-2.03-0.19-3.09-1.47-3.05-3.53c0.16-6.63,0.25-13.25,0.43-19.88c0.11-3.91,0.32-7.82,0.55-11.73   C320.03,325.3,320.33,324.23,320.53,323.13z"/>
	<path d="M230.52,226.48c-5.05-0.26-10.21-0.52-15.64-0.79c-0.51,2.56-0.9,4.82-1.41,7.05c-0.55,2.41-1.11,4.82-1.85,7.17   c-0.42,1.32-1.33,2.37-2.92,2.49c-1.88,0.15-3.17-0.73-3.35-2.61c-0.13-1.41-0.14-2.92,0.22-4.28c2.85-10.73,5.35-21.57,9.93-31.75   c0.72-1.6,1.5-3.2,2.46-4.65c1.73-2.61,4.28-3.2,7.12-1.87c1.66,0.78,2.93,2.01,3.68,3.64c1.21,2.6,2.34,5.25,3.36,7.93   c1.07,2.84,1.97,5.74,2.95,8.61c0.37,1.07,0.89,1.91,1.99,2.54c1.71,0.98,2.29,2.98,1.52,5.07c-0.43,1.16-0.33,2.09,0.06,3.19   c0.94,2.66,1.42,5.41,1.23,8.24c-0.14,2.11-0.92,3.29-2.27,3.52c-1.67,0.29-3.55-0.73-4.13-2.54c-0.6-1.89-0.89-3.88-1.29-5.83   C231.81,229.91,231.77,228.11,230.52,226.48z M228.57,219.43c-1.59-5.25-3.54-9.99-5.66-14.74c-1.93,2.33-4.96,10.06-5.55,14.18   C220.99,219.05,224.61,219.23,228.57,219.43z"/>
	<path d="M282.59,292.47c-0.02,3.32-0.98,7.39-3.03,11.19c-1.64,3.04-4.09,5.02-7.48,5.86c-4.82,1.2-9.64,1.26-14.43-0.06   c-6.46-1.79-10.13-6.19-11.06-12.72c-1.03-7.16,1.4-13.26,6.65-18.11c4.84-4.47,10.67-4.94,16.82-3.45   c0.08,0.02,0.15,0.05,0.23,0.08C278.71,277.63,282.58,282.73,282.59,292.47z M274.85,292.43c-0.02-0.32-0.02-1.12-0.12-1.91   c-0.86-6.86-4.15-9.62-11.08-9.37c-3.08,0.11-5.54,1.37-7.37,3.82c-2.29,3.07-3.3,6.55-2.91,10.35c0.4,3.85,2.23,6.79,6,8.22   C267.38,306.55,274.84,301.42,274.85,292.43z"/>
	<path d="M189.05,279.79c-0.4,4.74,0.33,9.01,0.62,13.3c0.19,2.86,0.29,5.74,0.21,8.61c-0.04,1.4-0.48,2.83-0.96,4.17   c-0.57,1.61-1.71,2.36-3.01,2.28c-1.57-0.09-2.12-1.31-2.53-2.52c-0.33-0.97-0.58-2.02-0.6-3.04c-0.17-9.26-0.31-18.52-0.39-27.78   c-0.01-1.18,0.24-2.39,0.53-3.54c0.47-1.84,1.34-2.47,3.15-1.98c1.08,0.29,2.25,0.97,2.94,1.83c0.94,1.18,2.04,1.96,3.31,2.65   c2.72,1.47,5.41,3,8.23,4.56c0.15-1.58,0.15-3,0.47-4.35c0.26-1.14,0.72-2.31,1.4-3.25c1.38-1.94,3.87-1.69,4.75,0.53   c0.57,1.45,0.78,3.1,0.83,4.67c0.09,2.63-0.12,5.26-0.14,7.9c-0.05,6.87-0.07,13.74-0.1,20.61c-0.01,2.78-1.37,3.84-4.08,3.05   c-2.07-0.61-3.58-2.07-4.85-3.74c-0.34-0.44-0.41-1.23-0.33-1.82c0.26-1.97,0.62-3.93,1-5.87c0.43-2.19,1-4.35,1.39-6.54   c0.28-1.6-0.2-2.98-1.67-3.92c-2.34-1.51-4.62-3.12-6.99-4.58C191.35,280.47,190.3,280.26,189.05,279.79z"/>
	<path d="M238.96,381.96c0.11-1.56,0.18-2.75,0.28-3.93c0.07-0.79,0.1-1.61,0.29-2.37c0.38-1.52,1.31-2.3,2.63-2.4   c1.41-0.1,2.3,0.67,2.79,1.85c0.36,0.87,0.64,1.84,0.66,2.77c0.12,4.63,0.26,9.26,0.17,13.89c-0.13,6.63-0.45,13.26-0.69,19.9   c-2.34,1.61-3.79,1.41-5.37-0.73c-0.33-0.44-0.69-0.94-1.15-1.19c-1.9-1.01-2.13-2.75-1.85-4.53c0.29-1.89,0.88-3.72,1.33-5.58   c0.4-1.63,0.92-3.24,1.17-4.88c0.38-2.48-0.37-4.57-2.56-6.02c-1.8-1.19-3.53-2.49-5.35-3.64c-0.9-0.57-1.95-0.93-3.32-1.56   c0,1.7-0.08,2.95,0.01,4.18c0.32,4.3,0.73,8.6,1.03,12.91c0.14,2.07,0.3,4.17,0.11,6.22c-0.15,1.54-0.71,3.1-1.37,4.52   c-0.53,1.14-1.63,1.69-3,1.45c-1.34-0.24-1.85-1.23-2.04-2.36c-0.27-1.57-0.54-3.16-0.56-4.75c-0.07-5.35-0.01-10.71-0.05-16.07   c-0.02-3.52-0.16-7.03-0.18-10.55c-0.01-1.43,0.02-2.9,0.32-4.29c0.48-2.19,2.68-2.86,4.47-1.49c0.25,0.19,0.52,0.41,0.68,0.67   c1.99,3.12,5.15,4.7,8.28,6.31C236.66,380.77,237.65,381.28,238.96,381.96z"/>
	<path d="M168.77,219.17c0.01-4.84,0.91-9.27,2.95-13.43c3.07-6.26,8.04-10.44,14.49-12.91c0.96-0.37,1.99-0.62,3.02-0.74   c2.29-0.26,3.62,0.72,4.24,2.94c0.94,3.36,0.11,5.33-3.23,5.87c-7.76,1.25-15.23,10.98-13.76,21.11   c1.09,7.49,9.63,11.98,16.47,8.69c1.4-0.67,2.99-1.17,4.53-1.3c2.57-0.22,4.28,2.37,3.17,4.72c-0.5,1.04-1.34,2.01-2.25,2.73   c-2.7,2.09-5.8,3.02-9.22,2.53c-3.49-0.5-6.88-1.43-10.06-3.01C171.95,232.78,168.47,226.99,168.77,219.17z"/>
	<path d="M377.62,342.11c5.62-0.66,11.02,0.05,16.13-2.08c1.83-0.76,3.25-0.16,4.02,1.44c0.73,1.51,0.2,3.02-1.54,4   c-2.51,1.42-5.33,1.58-8.11,1.85c-2.38,0.23-4.78,0.33-7.17,0.53c-0.84,0.07-1.67,0.28-2.83,0.48c2.2,3.45,4.98,5.33,8.68,5.79   c2.24,0.28,4.45,0.14,6.62-0.61c1.35-0.47,2.75-0.87,4.15-1.15c1.48-0.3,2.45,0.15,2.87,1.12c0.48,1.09,0.17,2.74-0.74,3.53   c-0.48,0.41-1.04,0.76-1.61,1.02c-5.84,2.57-11.76,2.88-17.67,0.34c-7.33-3.15-10.82-10.11-8.93-17.84   c1.74-7.11,6.13-12.17,12.61-15.44c2.01-1.01,4.15-1.23,6.26-0.35c2.44,1.02,2.78,3.34,0.86,5.16c-0.65,0.61-1.35,0.91-2.17,0.51   c-1.03-0.51-1.87-0.15-2.67,0.44c-1.72,1.29-3.53,2.49-5.09,3.96C379.37,336.63,378.14,338.95,377.62,342.11z"/>
	<path d="M278.11,335.89c-0.29,3.98-0.42,7.97-0.93,11.92c-0.26,2.02-1.01,4.03-1.87,5.89c-1.57,3.38-4.42,5.24-8.1,5.57   c-6.32,0.56-11.55-1.55-14.91-7.1c-1.39-2.29-2.48-4.87-3.13-7.46c-1.44-5.76-1.89-11.66-1.21-17.59c0.1-0.87,0.28-1.74,0.57-2.56   c0.55-1.54,1.82-2.29,3.34-2.1c1.25,0.16,2.08,1.01,2.24,2.71c0.16,1.66,0.02,3.35,0.09,5.03c0.14,3.67,0.11,7.36,0.57,10.99   c0.29,2.25,1.1,4.51,2.1,6.56c1.73,3.53,4.83,5.14,8.74,5.34c1.91,0.1,3.38-0.65,4.12-2.28c0.78-1.72,1.48-3.58,1.68-5.43   c0.31-3,0.22-6.05,0.21-9.08c0-2.79-0.17-5.59-0.15-8.38c0.01-1.02,0.25-2.06,0.56-3.04c0.36-1.16,1.2-1.88,2.49-1.87   c1.23,0.01,2.25,0.55,2.63,1.71c0.37,1.12,0.58,2.32,0.62,3.5c0.09,2.55,0.03,5.11,0.03,7.67   C277.91,335.87,278.01,335.88,278.11,335.89z"/>
	<path d="M272.65,409.74c-2.91,1.58-5.77,2.23-8.91,1.46c-6.79-1.67-10.22-8.57-7.14-14.48c1.05-2.01,2.62-3.53,4.73-4.17   c2.27-0.69,4.65-1.03,7-1.39c1.08-0.17,2.21-0.03,3.48-0.03c0.38-1.71,0-3.22-0.74-4.63c-0.73-1.4-1.85-1.86-3.41-1.53   c-0.78,0.17-1.52,0.5-2.3,0.65c-1.67,0.33-3.43-0.59-3.93-2c-0.55-1.56,0.04-3.18,1.51-4.15c2.79-1.83,9.21-1.79,11.63,0.44   c1.22,1.12,2.08,2.83,2.65,4.43c1.36,3.84,1.26,7.85,0.77,11.85c-0.26,2.14-0.55,4.27-0.8,6.41c-0.21,1.8,0.37,3.22,1.81,4.42   c1.85,1.54,1.98,2.6,0.82,4.01c-1.41,1.71-3.38,1.96-5.04,0.61C274.1,411.09,273.47,410.48,272.65,409.74z M271.56,397.18   c-3.68-1.12-6.89-0.35-8.82,1.95c-1.88,2.22-1.2,4.99,1.53,5.99c1.78,0.65,3.61,0.52,5.42,0.06c0.89-0.23,1.36-0.79,1.43-1.69   C271.28,401.36,271.42,399.23,271.56,397.18z"/>
	<path d="M211.69,341.94c0.43-10.4,4.68-17.84,13.55-22.38c1.26-0.64,2.67-1.11,4.06-1.34c2.57-0.42,3.94,0.69,4.33,3.23   c0.07,0.47,0.11,0.95,0.1,1.43c-0.03,1.73-0.42,2.29-2,2.84c-0.45,0.16-0.91,0.31-1.38,0.38c-6.59,0.9-13.08,10.04-11.38,18.6   c0.78,3.9,4.35,6.93,8.67,7.47c1.92,0.24,3.81,0.13,5.62-0.73c0.93-0.44,1.91-0.82,2.9-1.1c1.12-0.31,2.24-0.3,3.06,0.74   c0.77,0.97,0.8,2.03,0.4,3.16c-0.82,2.29-2.5,3.64-4.74,4.38c-2.73,0.89-5.51,0.87-8.28,0.26c-6.94-1.54-12.15-5.17-14.22-12.31   C211.91,344.9,211.86,343.11,211.69,341.94z"/>
	<path d="M365.98,304.72c-2.13,0.35-4.15,0.96-6.15,0.95c-4.92-0.03-9.12-3.72-9.75-8.24c-0.7-4.99,1.96-9.4,6.96-10.85   c2.55-0.74,5.31-0.76,8.33-1.16c0.03-1.99-0.23-4.14-2.4-5.72c-1,0.27-1.97,0.63-2.98,0.78c-2.17,0.33-4.09-0.67-4.51-2.26   c-0.43-1.6,0.12-3.02,1.74-3.78c2.83-1.33,5.81-1.69,8.83-0.66c2.21,0.76,3.57,2.49,4.13,4.65c0.55,2.14,1,4.39,1,6.59   c-0.01,4.06-0.33,8.13-0.64,12.18c-0.11,1.46-0.01,2.68,1.24,3.61c0.31,0.23,0.55,0.57,0.79,0.89c0.85,1.13,0.97,2.35,0.31,3.59   c-0.58,1.09-1.88,1.65-3.34,1.17C368.2,306.02,366.99,305.23,365.98,304.72z M364.89,291.53c-2.86-0.7-5.23-0.12-7.37,1.47   c-2.07,1.55-2.04,4.26,0,5.87c1.51,1.2,4.21,1.48,5.86,0.46c0.53-0.33,1.1-1.02,1.16-1.6C364.76,295.7,364.78,293.65,364.89,291.53   z"/>
	<path d="M317.85,288.11c0.36-5.97,3.69-13.54,12.17-18.08c1.45-0.78,3.1-1.3,4.73-1.59c2.39-0.43,3.98,0.84,4.49,3.22   c0.5,2.38-0.47,4.23-2.93,4.62c-3.97,0.62-6.64,2.92-8.79,6.04c-2.26,3.27-3.29,6.88-2.85,10.87c0.68,6.21,7.75,10.22,13.46,7.65   c1.09-0.49,2.19-0.98,3.34-1.29c1.2-0.33,2.42-0.25,3.26,0.87c0.91,1.21,0.96,2.55,0.18,3.82c-1.68,2.75-4.31,4.11-7.41,4.11   c-3.76,0-7.48-0.59-10.9-2.35C320.61,302.93,317.58,298.08,317.85,288.11z"/>
	<path d="M416.54,294.64c-2.18-0.56-2.41-2.35-2.05-4.29c0.13-0.7,0.6-1.58,1.17-1.89c1.06-0.58,1.38-1.42,1.63-2.47   c0.77-3.23,2.23-6.14,4.34-8.71c1.5-1.82,3.33-3.22,5.57-3.99c1.79-0.61,3.59-0.66,5.34,0.23c0.8,0.41,1.15,0.99,1.15,1.9   c-0.01,1.86-0.9,3.22-2.36,4.2c-1.39,0.93-2.88,1.7-4.31,2.58c-1.45,0.89-2.7,1.96-3,4.19c0.92-0.14,1.66-0.21,2.38-0.37   c1.48-0.33,2.95-0.68,4.42-1.07c1.85-0.49,2.79-0.11,3.66,1.57c0.92,1.79,0.75,3.61-0.68,4.47c-1.28,0.76-2.73,1.3-4.16,1.72   c-2.04,0.6-4.14,1-6.17,1.47c0.4,4.91,4.98,7.87,9.31,6.27c0.45-0.17,0.89-0.36,1.36-0.46c1.85-0.41,2.58-0.09,3.36,1.41   c0.83,1.6,0.64,2.99-0.61,4.12c-0.29,0.26-0.63,0.48-0.98,0.68c-6.66,3.81-15.43,0.65-18.02-6.53   C417.34,298.19,417.05,296.6,416.54,294.64z"/>
	<path d="M220.77,296.72c0.78,1.11,1.21,1.84,1.76,2.47c3.27,3.72,9.79,4.6,13.11,2.01c1.17-0.91,2.52-1.45,3.9-0.18   c1.18,1.09,1.5,2.4,0.44,3.59c-0.87,0.98-2.01,1.91-3.22,2.37c-6.25,2.36-12.09,1.49-17.36-2.68c-2.64-2.09-4.17-4.93-4.43-8.23   c-0.66-8.56,2.09-15.74,9.21-20.89c1.08-0.78,2.33-1.49,3.61-1.81c1.17-0.3,2.57-0.29,3.72,0.06c2.04,0.62,2.73,2.85,1.6,4.69   c-0.28,0.46-0.95,0.91-1.47,0.94c-5.38,0.32-8.28,3.63-10.11,8.26c-0.4,1.02-0.67,2.09-1.14,3.59c1.74-0.12,3.14-0.11,4.51-0.35   c2.36-0.41,4.68-1.03,7.04-1.45c1.25-0.22,2.54-0.27,3.81-0.3c1.1-0.03,2.13,0.3,2.52,1.45c0.41,1.22,0.22,2.49-0.85,3.26   c-0.94,0.68-2.06,1.31-3.19,1.52c-2.5,0.48-5.06,0.69-7.59,1C224.85,296.24,223.06,296.45,220.77,296.72z"/>
	<path d="M398.15,277.22c0.07,0.96,0.14,1.98,0.2,2.99c0.39,6.38,0.68,12.77-0.26,19.12c-0.28,1.88-0.82,3.74-1.46,5.53   c-0.33,0.93-1.02,1.82-1.76,2.51c-1.25,1.16-3.31,1.12-4.38,0.09c-1.1-1.05-1.15-2.59-0.31-4.18c0.77-1.46,1.55-2.96,2.04-4.52   c0.4-1.27,0.46-2.67,0.55-4.02c0.34-5.61-0.31-11.16-1.03-16.71c-0.04-0.3-0.23-0.58-0.47-1.15c-1.46,0.23-2.92,0.49-4.39,0.7   c-1.26,0.18-2.53,0.44-3.79,0.39c-1.73-0.06-2.56-0.97-2.81-2.69c-0.27-1.87,0.32-3.02,2.03-3.55c1.06-0.33,2.18-0.54,3.28-0.61   c4.38-0.31,8.76-0.7,13.14-0.77c2.69-0.04,5.4,0.33,8.06,0.76c1.02,0.17,2.08,0.86,2.86,1.58c1.09,1.01,1.14,2.41,0.59,3.78   c-0.57,1.41-1.79,1.49-3.01,1.32c-1.34-0.18-2.66-0.51-3.99-0.78C401.09,276.56,400.11,276.58,398.15,277.22z"/>
	<path d="M330.12,405.95c1.18-0.1,2.2-0.27,3.22-0.26c3.42,0.04,6.86,0.01,10.27,0.28c1.45,0.12,2.92,0.79,4.26,1.44   c1.39,0.68,2.05,1.99,2.03,3.55c-0.03,2.43-2.43,4.04-4.53,2.81c-1.63-0.95-3.3-1.12-5.05-1.18c-4.39-0.13-8.79-0.2-13.1,0.92   c-0.84,0.22-1.74,0.3-2.61,0.29c-1.97-0.03-3.05-1.44-2.61-3.38c0.16-0.69,0.43-1.39,0.8-1.99c1.39-2.25,1.97-4.75,1.95-7.32   c-0.05-5.9-0.25-11.81-0.4-17.71c-0.06-2.39-0.27-4.79-0.16-7.18c0.11-2.3,1.08-3.38,2.6-3.45c1.45-0.07,2.34,0.71,2.87,2.97   c0.42,1.78,0.75,3.62,0.75,5.44c-0.01,6.71-0.18,13.41-0.28,20.12C330.11,402.75,330.12,404.17,330.12,405.95z"/>
	<path d="M323.71,227.29c-0.85-8.9-1.71-17.8-2.55-26.69c-0.09-0.95-0.19-1.91-0.16-2.86c0.08-2.48,1.18-3.58,3.68-3.82   c2.12-0.2,3.35,0.72,3.88,3c0.22,0.93,0.34,1.88,0.43,2.84c0.75,8.02,1.51,16.05,2.21,24.08c0.35,4.06,0.63,8.13-0.19,12.17   c-0.2,1-0.53,2.02-1,2.92c-0.91,1.73-2.34,2.29-4.23,1.85c-1.77-0.41-2.6-1.37-2.62-3.19c-0.01-1.03,0.19-2.07,0.21-3.1   c0.03-2.39,0.01-4.78,0.01-7.17C323.5,227.3,323.6,227.29,323.71,227.29z"/>
	<path d="M445.78,225.02c0-1.23,0-2.15,0-3.35c2.84-0.23,5.69-0.08,8.54-0.11c2.86-0.03,5.71-0.01,8.84-0.01c0-4.22,0-8.17,0-12.3   c1.25,0,2.23,0,3.46,0c0,4.04,0,8,0,12.23c5.72,0,11.19,0,16.84,0c0,1.24,0,2.22,0,3.54c-5.53,0-11,0-16.76,0   c0,6.36,0,12.38,0,18.55c-1.21,0-2.13,0-3.39,0c-0.23-6.04,0.02-12.16-0.15-18.56C457.31,225.02,451.61,225.02,445.78,225.02z"/>
	<path d="M131.06,204.5c0,3.93,0,7.74,0,11.8c5.59,0,10.98,0,16.56,0c0,1.23,0,2.22,0,3.48c-5.39,0.41-10.9-0.41-16.58,0.45   c0,6.25,0,12.36,0,18.59c-1.2,0-2.13,0-3.35,0c-0.04-0.92-0.1-1.85-0.1-2.78c-0.02-4.47,0-8.95-0.04-13.42   c-0.01-0.85-0.16-1.7-0.27-2.78c-5.76,0-11.31,0-17.01,0c0-1.17,0-2.1,0-3.37c2.84-0.14,5.68-0.05,8.51-0.07   c2.85-0.02,5.7,0,8.76,0c0-4.08,0-7.89,0-11.9C128.73,204.5,129.71,204.5,131.06,204.5z"/>
	<path d="M133.58,225.3c0.77-0.99,1.38-1.78,2.1-2.7c3.36,3.49,6.53,6.79,9.87,10.27c-0.81,0.83-1.55,1.59-2.38,2.43   C139.89,231.87,136.77,228.62,133.58,225.3z"/>
	<path d="M469.17,230.28c0.73-0.9,1.22-1.52,1.74-2.12c0.09-0.11,0.28-0.14,0.56-0.26c3.15,3.26,6.33,6.56,9.68,10.02   c-0.76,0.78-1.46,1.48-2.37,2.4C475.5,236.89,472.38,233.64,469.17,230.28z"/>
	<path d="M481.23,213.09c-2.9,2.51-5.71,4.94-8.7,7.52c-0.81-0.89-1.48-1.61-2.22-2.43c2.5-2.25,4.8-4.43,7.22-6.46   C479.33,210.2,480.12,210.52,481.23,213.09z"/>
	<path d="M143.63,205.39c0.74,0.78,1.42,1.51,2.28,2.42c-3.06,2.65-5.97,5.17-8.82,7.64c-2.14-1.24-2.47-2.23-1.09-3.49   C138.44,209.72,141.02,207.63,143.63,205.39z"/>
	<path d="M125.34,226.11c-2.52,2.76-4.92,5.39-7.45,8.16c-0.92-0.59-1.81-1.16-2.89-1.85c2.78-3.04,5.37-5.89,8.11-8.88   C123.9,224.44,124.55,225.2,125.34,226.11z"/>
	<path d="M458.53,228.65c2.42,1.77,2.48,2.33,0.85,4.11c-1.5,1.64-2.95,3.33-4.44,4.98c-0.52,0.57-1.11,1.09-1.74,1.69   c-0.82-0.77-1.5-1.42-2.36-2.23C453.4,234.35,455.92,231.55,458.53,228.65z"/>
	<path d="M125.95,213.29c-0.88,0.75-1.64,1.41-2.57,2.21c-2.2-2.58-4.34-5.1-6.63-7.79c0.88-0.8,1.62-1.46,2.49-2.25   C121.51,208.1,123.66,210.61,125.95,213.29z"/>
	<path d="M461.48,218.32c-0.95,0.79-1.72,1.43-2.49,2.07c-1.84-2.02-3.63-3.84-5.25-5.79c-1.6-1.92-1.29-2.8,1.26-3.94   C457.07,213.1,459.17,215.59,461.48,218.32z"/>
	<path d="M437.58,401.87c0,9.23,0,18.36,0,27.77c-1.02,0.07-2,0.14-2.92,0.21c-0.59-1.86-0.79-23.45-0.3-27.98   C435.32,401.87,436.3,401.87,437.58,401.87z"/>
	<path d="M381.88,462.54c1.07,0,2,0,2.93,0c0.47,1.73,0.58,17.88,0.13,21.1c-0.95,0-1.93,0-3.06,0   C381.88,476.59,381.88,469.62,381.88,462.54z"/>
	<path d="M478.3,357.93c1.11,0,2.04,0,3.14,0c0,7.04,0,14.01,0,21.15c-1.05,0-2.03,0-3.14,0C478.3,372.05,478.3,365.14,478.3,357.93   z"/>
	<path d="M403.62,470.55c0-4.92,0-9.73,0-14.65c1.14,0,2.14,0,3.27,0c0,4.92,0,9.73,0,14.65   C405.75,470.55,404.75,470.55,403.62,470.55z"/>
	<path d="M458.82,417.26c-1.05,0-1.98,0-3.06,0c0-5.17,0-10.24,0-15.45c1.01,0,1.93,0,2.87,0   C459.11,403.44,459.26,413.33,458.82,417.26z"/>
	<path d="M472.19,377.73c0.9,0,1.82,0,2.92,0c0,5.17,0,10.29,0,15.57c-0.96,0-1.88,0-2.83,0   C471.75,391.72,471.65,380.34,472.19,377.73z"/>
	<path d="M416.57,427.37c0-4.84,0-9.59,0-14.53c0.94,0,1.84,0,2.94,0c0,4.76,0,9.57,0,14.53   C418.54,427.37,417.63,427.37,416.57,427.37z"/>
	<path d="M399.92,495.16c-1.05,0-1.98,0-3.08,0c0-4.89,0-9.71,0-14.67c1,0,1.92,0,2.86,0C400.22,482.09,400.38,490.87,399.92,495.16   z"/>
	<path d="M460.34,378.46c-1.1,0-1.97,0-2.83,0c-0.54-1.66-0.7-10.35-0.26-14.62c0.95,0,1.93,0,3.09,0   C460.34,368.63,460.34,373.43,460.34,378.46z"/>
	<path d="M416.57,461.53c1.14,0,2.14,0,3.26,0c0,4.02,0,7.89,0,11.85c-1.14,0-2.14,0-3.26,0   C416.57,469.37,416.57,465.51,416.57,461.53z"/>
	<path d="M493.54,324.63c1.15,0,2.07,0,3.17,0c0,3.8,0,7.5,0,11.35c-1.06,0-2.04,0-3.17,0   C493.54,332.19,493.54,328.55,493.54,324.63z"/>
	<path d="M483.97,311.5c1.31,0,2.24,0,3.31,0c0,3.67,0,7.22,0,10.98c-0.97,0-1.94,0-3.18,0c-0.25-1.75-0.09-3.56-0.12-5.35   C483.95,315.32,483.97,313.5,483.97,311.5z"/>
	<path d="M449.6,418.38c1.05,0,1.98,0,3.21,0c0.03,1.78,0.07,3.57,0.09,5.36c0.02,1.81,0,3.62,0,5.59c-1.18,0-2.16,0-3.3,0   C449.6,425.7,449.6,422.11,449.6,418.38z"/>
	<path d="M493.23,356.42c1.16,0,2.09,0,3.2,0c0,3.71,0,7.31,0,11.02c-1.1,0-2.09,0-3.2,0C493.23,363.76,493.23,360.22,493.23,356.42   z"/>
	<path d="M435.21,439.65c1.03,0,1.95,0,3.06,0c0,3.28,0,6.52,0,9.98c-0.92,0-1.9,0-3.06,0   C435.21,446.36,435.21,443.07,435.21,439.65z"/>
	<path d="M399.47,465.41c-1.19,0-2.12,0-3.17,0c0-3.38,0-6.61,0-9.99c1.08,0,2.06,0,3.17,0   C399.47,458.78,399.47,462.01,399.47,465.41z"/>
	<path d="M194.66,458.35c1.55,0,2.65,0,3.73,0c0.59,1.68,0.72,12.75,0.17,15.5c-1.13,0-2.3,0-3.76,0   C194.5,468.78,194.72,463.67,194.66,458.35z"/>
	<path d="M105.92,335.52c-1.08,0-2,0-3.06,0c0-6.5,0-12.85,0-19.42c0.96,0,1.94,0,2.93,0C106.24,317.79,106.36,332.45,105.92,335.52   z"/>
	<path d="M208.95,459.89c1.51,0,2.82,0,4.28,0c0,4.5,0,8.85,0,13.42c-1.39,0-2.76,0-4.28,0   C208.95,468.88,208.95,464.52,208.95,459.89z"/>
	<path d="M109.64,362.14c-1.09,0-1.95,0-2.96,0c0-6.05,0-12,0-18.09c0.51-0.08,0.96-0.19,1.41-0.2c0.47-0.01,0.93,0.1,1.55,0.17   C109.64,350.03,109.64,355.99,109.64,362.14z"/>
	<path d="M114.32,314.27c1.06,0,1.99,0,2.91,0c0.46,1.67,0.58,14.77,0.15,17.94c-0.95,0-1.93,0-3.06,0   C114.32,326.23,114.32,320.31,114.32,314.27z"/>
	<path d="M132.24,365.26c0,5.32,0,10.4,0,15.64c-1.09,0-2.06,0-3.16,0c0-5.24,0-10.38,0-15.64   C130.15,365.26,131.08,365.26,132.24,365.26z"/>
	<path d="M167.4,421.84c1.12,0,2.05,0,3.14,0c0,5.21,0,10.33,0,15.64c-1,0-1.98,0-3.14,0C167.4,432.34,167.4,427.22,167.4,421.84z"/>
	<path d="M133.89,395.26c1.09,0,2.08,0,3.18,0c0,5.15,0,10.13,0,15.28c-0.58,0.07-1.11,0.16-1.63,0.18   c-0.46,0.02-0.93-0.05-1.54-0.09C133.89,405.48,133.89,400.43,133.89,395.26z"/>
	<path d="M185.31,424.37c-1.25,0-2.17,0-3.25,0c0-5.17,0-10.22,0-15.41c1.01,0,1.93,0,3.14,0   C185.52,413.99,185.32,419.05,185.31,424.37z"/>
	<path d="M179.24,456.6c0-4.5,0-8.84,0-13.35c1.09,0,2.08,0,3.24,0c0,4.45,0,8.84,0,13.35C181.42,456.6,180.49,456.6,179.24,456.6z"/>
	<path d="M146.06,378.1c-0.98,0-1.84,0-2.86,0c0-5.14,0-10.18,0-15.34c0.99,0,1.84,0,2.69,0C146.4,364.4,146.53,374.6,146.06,378.1z   "/>
	<path d="M124.44,373.06c0-3.72,0-7.19,0-10.79c1.07,0,2,0,2.93,0c0.5,1.68,0.6,7.85,0.16,10.79   C126.57,373.06,125.59,373.06,124.44,373.06z"/>
	<path d="M153.43,411.15c-1.06,0-1.99,0-3.08,0c0-3.47,0-6.83,0-10.33c1.04,0,1.96,0,2.89,0   C153.76,402.47,153.88,407.84,153.43,411.15z"/>
	<path d="M150.99,421.27c-1.17,0-2.09,0-3.16,0c0-2.94,0-5.76,0-8.74c1.05,0,2.03,0,3.16,0   C150.99,415.45,150.99,418.27,150.99,421.27z"/>
	<path d="M234.88,117.41c-0.05-1.95,1.19-3.54,2.77-3.54c1.51,0,2.66,1.44,2.68,3.35c0.01,1.87-0.97,3.14-2.48,3.19   C236.13,120.46,234.93,119.24,234.88,117.41z"/>
</g>
</svg>